<?xml version="1.0" encoding="utf-8" ?><svg xmlns="http://www.w3.org/2000/svg" xmlns:xlink="http://www.w3.org/1999/xlink" width="3144" height="2187" viewBox="0 0 3144 2187"><clipPath id="cl_4"><rect width="3144" height="2187"/></clipPath><g clip-path="url(#cl_4)"><path fill="#FBF7F4" transform="translate(-231 0)" d="M825.058 556.717C824.774 561.836 821.348 563.515 816.291 568.231C819.319 567.052 820.279 566.519 823.075 565.112L822.809 564.218L825.674 563.747C846.224 560.301 880.758 553.149 898.569 565.322C877.235 561.752 852.055 559.273 831.788 566.594C794.877 579.928 771.765 626.559 760.255 651.72C752.411 668.869 743.858 710.436 745.879 727.356C750.524 766.253 775.632 836.788 806.903 870.205C847.552 910.902 906.43 945.87 970.876 970.325C994.806 979.407 1029.65 985.418 1053.39 994.289C1066.37 999.14 1018.95 1023.1 1014.85 1026.11C1110.37 1137.55 1152.47 1264.91 1135.77 1391.93C1132.76 1413.04 1127.47 1425.77 1121.99 1445.91C1115.25 1470.73 1109.23 1490.12 1098.86 1514.35C1076.96 1565.56 1050.05 1610.18 999.382 1652.65C968.197 1678.79 954.127 1692.54 908.519 1708.75C857.415 1726.93 823.635 1732.9 765.622 1728.5C754.575 1727.67 739.55 1728.11 728.698 1726.19C711.589 1723.18 695.915 1715.89 680.885 1709.91C668.362 1704.94 655.171 1700.28 643.404 1694.64C601.654 1674.64 553.793 1639.98 529.193 1609.75C488.639 1559.9 469.414 1501.98 462.994 1446.11C460.673 1425.92 464.317 1397.99 463.591 1377.2C463.125 1363.87 463.369 1324.49 468.047 1313.96C467.718 1309.56 471.296 1294.77 472.546 1290.12C481.91 1255.29 495.581 1214.96 521.326 1183.54C539.136 1161.28 561.222 1139 600.352 1130.52C636.957 1122.58 689.246 1125.47 723.537 1136.18C758.593 1147.13 784.994 1193.11 795.157 1215.89C807.159 1242.79 816.021 1282.43 818.989 1310.96C813.243 1306.11 789.922 1277.81 786.691 1271.89C770.191 1257.24 758.05 1252 731.434 1246.21C725.762 1247.6 724.358 1247.88 718.122 1248.13C704.203 1248.67 694.11 1251.99 681.894 1256.08C621.438 1289.93 604.67 1332.23 600.485 1382.29C596.668 1427.96 604.863 1490.45 619.539 1534.85C623.095 1542.9 633.974 1568.84 639.894 1574.91C661.64 1612.57 698.712 1642.61 761.687 1650.12L766.417 1649.42C773.754 1651.24 796.003 1650.88 804.021 1648.72C812.905 1648.33 826.95 1644.69 834.778 1641.88C870.49 1641.28 906.699 1564.47 913.125 1544.61C913.502 1535.83 926.286 1500.69 929.509 1487.63C934.262 1462.38 935.601 1434.67 936.162 1409.23C938.419 1306.84 905.958 1187.11 778.673 1117.74C740.321 1098.71 696.55 1084.47 657.766 1065.98C643.48 1059.17 656.512 1052.02 665.243 1047.22C673.631 1042.61 681.61 1037.07 689.054 1031.88C643.711 1012.73 596.459 955.937 583.61 921.915C561.549 863.501 550.656 784.042 565.209 724.523L565.917 719.909C565.905 719.946 568.035 713.127 567.945 713.157C605.951 700.394 636.983 686.191 670.337 668.827C690.568 655.355 716.44 641.783 738.907 626.795C775.28 600.621 793.457 584.536 825.058 556.717Z"/><path fill="#F4E5C2" transform="translate(-231 0)" d="M825.058 556.717C824.774 561.836 821.348 563.515 816.291 568.231C819.319 567.052 820.279 566.519 823.075 565.112L822.809 564.218L825.674 563.747C846.224 560.301 880.758 553.149 898.569 565.322C877.235 561.752 852.055 559.273 831.788 566.594C794.877 579.928 771.765 626.559 760.255 651.72C752.411 668.869 743.858 710.436 745.879 727.356C750.524 766.253 775.632 836.788 806.903 870.205C847.552 910.902 906.43 945.87 970.876 970.325C994.806 979.407 1029.65 985.418 1053.39 994.289C1066.37 999.14 1018.95 1023.1 1014.85 1026.11C1110.37 1137.55 1152.47 1264.91 1135.77 1391.93C1132.76 1413.04 1127.47 1425.77 1121.99 1445.91C1115.25 1470.73 1109.23 1490.12 1098.86 1514.35C1076.96 1565.56 1050.05 1610.18 999.382 1652.65C968.197 1678.79 954.127 1692.54 908.519 1708.75C857.415 1726.93 823.635 1732.9 765.622 1728.5C754.575 1727.67 739.55 1728.11 728.698 1726.19C711.589 1723.18 695.915 1715.89 680.885 1709.91C668.362 1704.94 655.171 1700.28 643.404 1694.64C601.654 1674.64 553.793 1639.98 529.193 1609.75C488.639 1559.9 469.414 1501.98 462.994 1446.11C460.673 1425.92 464.317 1397.99 463.591 1377.2C463.125 1363.87 463.369 1324.49 468.047 1313.96L468.149 1315.29C468.903 1326.71 467.373 1339.84 467.346 1351.7C467.219 1407.65 463.563 1494.33 496.083 1546.03L498.536 1546.48L498.491 1548.35L498.643 1548.26C495.833 1532.66 483.835 1515.3 483.192 1497.81C486.505 1500.52 484.631 1499.52 485.905 1502.52C512.801 1565.84 547.792 1620.77 624.281 1666.13C654.957 1684.32 673.011 1691.51 711.19 1702.83L709.078 1699.69C778.03 1709.59 834.281 1707.75 887.813 1674.16C892.904 1670.97 914.429 1652.67 914.489 1652.64L916.924 1657.01L919.127 1654.82C919.124 1650.75 918.909 1650.39 920.516 1646.32L921.76 1646.66C921.639 1649.36 921.65 1651.99 921.644 1654.68L923.995 1654.16C939.053 1634.57 961.447 1606.72 973.038 1587.05C1009.77 1524.72 1026.34 1456.18 1033.38 1390.07C1040.78 1320.56 1025.3 1245.49 994.149 1178.98C988.159 1166.19 983.078 1147.16 969.62 1136.94C966.835 1134.82 967.504 1136.32 966.018 1133.58L968.964 1132.52C968.357 1130.09 961.005 1125.12 957.999 1122.75L959.253 1123.04L948.742 1115.69L951.886 1111.17C949.667 1105.32 928.201 1102.17 932.687 1095L938.515 1094.88L938.699 1092.87C933.554 1087.4 930.585 1084.12 926.251 1078.32C921.809 1072.38 921.919 1062.66 917.165 1059.46C915.132 1063.08 913.932 1067.16 912.567 1070.95C903.577 1032.22 970.108 1015.99 966.076 999.15C955.02 988.219 933.666 988.149 920.921 982.517C892.746 970.068 863.132 954.863 832.057 945.298C816.88 940.626 817.001 958.299 800.702 963.83C781.544 964.43 728.744 936.489 719.621 924.054C719.234 923.526 712.907 918.059 712.925 917.95C714.647 907.742 700.841 899.618 695.864 890.189C664.209 838.899 653.443 781.73 655.295 726.732C655.619 717.115 672.163 671.912 670.337 668.827C690.568 655.355 716.44 641.783 738.907 626.795C775.28 600.621 793.457 584.536 825.058 556.717Z"/><path fill="#CFB3A8" transform="translate(-231 0)" d="M825.058 556.717C824.774 561.836 821.348 563.515 816.291 568.231C819.319 567.052 820.279 566.519 823.075 565.112L822.809 564.218L825.674 563.747C846.224 560.301 880.758 553.149 898.569 565.322C877.235 561.752 852.055 559.273 831.788 566.594C794.877 579.928 771.765 626.559 760.255 651.72C752.411 668.869 743.858 710.436 745.879 727.356C750.524 766.253 775.632 836.788 806.903 870.205C847.552 910.902 906.43 945.87 970.876 970.325C994.806 979.407 1029.65 985.418 1053.39 994.289C1066.37 999.14 1018.95 1023.1 1014.85 1026.11C1110.37 1137.55 1152.47 1264.91 1135.77 1391.93C1132.76 1413.04 1127.47 1425.77 1121.99 1445.91C1115.25 1470.73 1109.23 1490.12 1098.86 1514.35C1076.96 1565.56 1050.05 1610.18 999.382 1652.65C968.197 1678.79 954.127 1692.54 908.519 1708.75C857.415 1726.93 823.635 1732.9 765.622 1728.5C754.575 1727.67 739.55 1728.11 728.698 1726.19C711.589 1723.18 695.915 1715.89 680.885 1709.91C668.362 1704.94 655.171 1700.28 643.404 1694.64C601.654 1674.64 553.793 1639.98 529.193 1609.75C488.639 1559.9 469.414 1501.98 462.994 1446.11C460.673 1425.92 464.317 1397.99 463.591 1377.2C463.125 1363.87 463.369 1324.49 468.047 1313.96L468.149 1315.29C468.903 1326.71 467.373 1339.84 467.346 1351.7C467.219 1407.65 463.563 1494.33 496.083 1546.03L498.536 1546.48L498.491 1548.35L498.643 1548.26C495.833 1532.66 483.835 1515.3 483.192 1497.81C486.505 1500.52 484.631 1499.52 485.905 1502.52C512.801 1565.84 547.792 1620.77 624.281 1666.13C654.957 1684.32 673.011 1691.51 711.19 1702.83L711.546 1702.86C709.288 1703.33 710.657 1702.98 707.582 1704.12L708.671 1707.54L710.889 1708.08C713.918 1706.97 716.97 1705.89 720.046 1704.84C722.143 1705.43 731.676 1707.21 734.941 1706.84C745.212 1705.67 758.318 1712.31 761.894 1712.57C785.355 1713.7 812.342 1712.31 835.318 1709.43C839.654 1708.89 842.628 1706.29 849.506 1707.11L844.512 1708.49L844.04 1709.66C846.495 1710.29 847.415 1710.33 850 1710.47C833.897 1711.58 825.633 1716.21 812.532 1718.89C788.202 1723.87 762.538 1723.58 737.359 1723.88C754.133 1724.47 770.883 1725.22 787.675 1725.76C839.042 1727.41 893.273 1710.57 932.486 1690.37C936.313 1688.4 937.99 1685.12 943.596 1684.52L944.337 1687.29L945.983 1688.02C957.224 1683.78 953.683 1676.22 959.818 1668.51C968.798 1655.67 985.467 1644.23 995.86 1632.32C1009.69 1616.47 1010.41 1611.09 1032.28 1598.63C1028.67 1598.17 1029.52 1598.36 1026.07 1597.39C1032.28 1591.2 1033.71 1586.42 1039.19 1580.76C1039.98 1582.16 1039.82 1582.58 1041.25 1583.45C1048.07 1564.41 1052.21 1560.23 1064.93 1542.72L1062.18 1542.01C1061.93 1540.04 1079.45 1508.3 1082.02 1501.94C1089.42 1483.61 1096.58 1465.15 1101.66 1446.48C1105.99 1430.63 1107.82 1413.38 1115.35 1398.08C1115.82 1397.12 1116.25 1396.15 1116.64 1395.17L1114.54 1394.3C1114.88 1393.97 1115.3 1393.68 1115.55 1393.32C1118.5 1388.99 1118.12 1287.35 1114.94 1281.97C1107.13 1268.76 1110.22 1255.18 1105.24 1241.92C1098.87 1224.9 1095.37 1207.13 1089.63 1189.95C1087.52 1183.64 1083.43 1177.7 1080.97 1171.43C1068.52 1139.67 1056.22 1108.96 1037.35 1078.42C1033.17 1071.64 1029.34 1064.07 1023.88 1057.69C1018.93 1051.91 1011.31 1046.87 1005.47 1041.43C988.041 1025.17 1008.65 1015.98 1011.08 1001.15C1012.99 989.538 990.779 982.091 977.304 977.451C894.299 948.867 829.736 907.813 772.074 860.189L773.189 856.765C754.394 835.165 732.529 773.358 727.359 746.595C726.722 743.297 729.357 724.729 729.369 718.378L727.683 728.187C726.539 722.376 727.218 719.165 727.868 713.382L728.505 715.955C736.186 688.914 733.791 658.146 746.504 630.721C752.374 618.058 754.248 621.808 766.778 613.373C775.052 607.803 787.918 598.704 789.825 591.272C775.321 600.483 757.104 620.874 738.907 626.795C775.28 600.621 793.457 584.536 825.058 556.717Z"/><path fill="#F4E5C2" transform="translate(-231 0)" d="M639.765 1613.07C621.407 1600.83 607.523 1590.06 594.361 1575.11C589.947 1570.1 587.078 1563.79 582.569 1559.86L581.58 1560.26C580.949 1570.78 594.651 1579.71 595.549 1587.16C573.507 1567.56 550.788 1522.4 545.138 1498.59C526.735 1421.05 519.608 1299.89 590.416 1234.32C591.094 1236.94 586.319 1245.42 584.809 1248.6L587.268 1248.29C590.858 1243.73 607.65 1230.67 614.395 1230.15C628.634 1229.04 647.473 1235.92 664.119 1236.95C674.052 1237.56 694.601 1236.18 699.894 1238.37C706.847 1247.61 718.505 1244.48 731.434 1246.21C725.762 1247.6 724.358 1247.88 718.122 1248.13C704.203 1248.67 694.11 1251.99 681.894 1256.08C621.438 1289.93 604.67 1332.23 600.485 1382.29C596.668 1427.96 604.863 1490.45 619.539 1534.85C623.095 1542.9 633.974 1568.84 639.894 1574.91C661.64 1612.57 698.712 1642.61 761.687 1650.12L766.417 1649.42C773.754 1651.24 796.003 1650.88 804.021 1648.72C812.905 1648.33 826.95 1644.69 834.778 1641.88C870.49 1641.28 906.699 1564.47 913.125 1544.61C913.838 1564.43 897.095 1593.92 882.646 1612.42C881.292 1614.15 889.14 1614.37 882.407 1621.53C885.638 1621.46 885.538 1621.46 888.603 1621.12C884.302 1633.34 872.721 1635.61 870.965 1644.5C867.932 1647.09 855.308 1652.02 850.308 1652.25L853.143 1648.2L852.019 1647.21C847.28 1649.85 841.419 1657.29 838.008 1661.13C833.042 1656.38 829.319 1655.39 820.679 1658.38C816.17 1666.92 812.885 1664.34 798.526 1663.39L791.754 1667.57C776.638 1665.43 775.766 1662.94 764.667 1666.81L761.843 1666.46L761.577 1664.99L764.219 1663.25C758.302 1661.1 753.18 1663.75 746.927 1664.37C742.924 1664.77 746.547 1661.33 740.895 1660.09L739.039 1663.05L738.402 1660.6L734.48 1659.72L736.229 1658.36C732.846 1657.46 730.326 1656.33 727.295 1656.63L730.358 1660.13L729.265 1660.82L730.223 1660.8L729.951 1659.55L726.646 1660.22C707.339 1645.42 709.48 1657.53 693.924 1650.59C682.587 1645.53 645.197 1620.43 637.719 1613.58L639.765 1613.07Z"/><path fill="#CFB3A8" transform="translate(-231 0)" d="M639.765 1613.07C645.979 1617.6 669.22 1632.05 677.914 1632.58C673.962 1627.95 659.754 1618.68 653.401 1614.44C630.55 1599.26 614.184 1576.2 606.477 1555.96C591.483 1516.6 579.571 1477.07 582.266 1436.37C582.724 1429.46 577.139 1419.15 577.947 1411.51C580.748 1385.01 579.724 1356.41 593.43 1331.16C596.453 1325.5 591.947 1318.09 598.444 1310.6L601.896 1311.08L603.159 1309.91L601.308 1305.59C610.278 1293.3 614.02 1289.99 628.143 1279.8L631.669 1280.46C624.264 1286.14 611.252 1304.85 612.055 1311.74C621.245 1308.65 646.021 1256.25 681.894 1256.08C621.438 1289.93 604.67 1332.23 600.485 1382.29C596.668 1427.96 604.863 1490.45 619.539 1534.85C623.095 1542.9 633.974 1568.84 639.894 1574.91C661.64 1612.57 698.712 1642.61 761.687 1650.12L766.417 1649.42C773.754 1651.24 796.003 1650.88 804.021 1648.72C812.905 1648.33 826.95 1644.69 834.778 1641.88C870.49 1641.28 906.699 1564.47 913.125 1544.61C913.838 1564.43 897.095 1593.92 882.646 1612.42C881.292 1614.15 889.14 1614.37 882.407 1621.53C885.638 1621.46 885.538 1621.46 888.603 1621.12C884.302 1633.34 872.721 1635.61 870.965 1644.5C867.932 1647.09 855.308 1652.02 850.308 1652.25L853.143 1648.2L852.019 1647.21C847.28 1649.85 841.419 1657.29 838.008 1661.13C833.042 1656.38 829.319 1655.39 820.679 1658.38C816.17 1666.92 812.885 1664.34 798.526 1663.39L791.754 1667.57C776.638 1665.43 775.766 1662.94 764.667 1666.81L761.843 1666.46L761.577 1664.99L764.219 1663.25C758.302 1661.1 753.18 1663.75 746.927 1664.37C742.924 1664.77 746.547 1661.33 740.895 1660.09L739.039 1663.05L738.402 1660.6L734.48 1659.72L736.229 1658.36C732.846 1657.46 730.326 1656.33 727.295 1656.63L730.358 1660.13L729.265 1660.82L730.223 1660.8L729.951 1659.55L726.646 1660.22C707.339 1645.42 709.48 1657.53 693.924 1650.59C682.587 1645.53 645.197 1620.43 637.719 1613.58L639.765 1613.07Z"/><path fill="#E5C8D1" transform="translate(-231 0)" d="M689.054 1031.88C643.711 1012.73 596.459 955.937 583.61 921.915C561.549 863.501 550.656 784.042 565.209 724.523L565.435 726.045C568 744.228 560.809 762.959 562.929 781.327C564.907 798.464 566.651 815.613 569.166 832.728C571.342 846.682 568.774 862.412 576.022 875.533C578.576 867.713 570.884 854.921 574.83 850.848C583.697 862.279 582.847 879.781 587.19 892.433C593.965 912.164 609.215 933.385 622.592 951.74C632.687 965.592 644.396 979.125 659.073 991.18C670.9 1000.89 691.084 1010 698.217 1021.45C705.995 1033.94 689.67 1049.59 699.715 1061.01C711.17 1074.03 778.973 1096.52 802.551 1111.23C875.574 1156.79 913.106 1213.73 931.834 1277.58C936.053 1291.96 936.607 1307.03 939.165 1321.58C939.793 1325.15 941.676 1328.53 942.307 1332.05C944.73 1345.54 936.084 1360.15 940.582 1373.67L941.593 1367.94C942.178 1388.32 941.787 1475.28 929.509 1487.63C934.262 1462.38 935.601 1434.67 936.162 1409.23C938.419 1306.84 905.958 1187.11 778.673 1117.74C740.321 1098.71 696.55 1084.47 657.766 1065.98C643.48 1059.17 656.512 1052.02 665.243 1047.22C673.631 1042.61 681.61 1037.07 689.054 1031.88Z"/><path fill="#CFB3A8" transform="translate(-231 0)" d="M521.326 1183.54C539.136 1161.28 561.222 1139 600.352 1130.52C636.957 1122.58 689.246 1125.47 723.537 1136.18C758.593 1147.13 784.994 1193.11 795.157 1215.89C807.159 1242.79 816.021 1282.43 818.989 1310.96C813.243 1306.11 789.922 1277.81 786.691 1271.89C789.471 1270.85 788.109 1271.55 790.547 1269.61C793.257 1252.41 785.119 1231.62 763.488 1220.4C759.636 1214.7 755.715 1209.02 751.724 1203.36L755.428 1200.43C756.778 1195.38 745.867 1190.34 744.892 1185.4C744.08 1181.29 743.656 1176.67 742.802 1172.32L740.737 1171.95C740.397 1174.43 741.652 1177.66 742.349 1180.25L740.41 1181.15C736.801 1177.04 735.481 1174.91 736.816 1170.67L739.957 1169.62C713.044 1157.28 721.525 1141.87 678.042 1139.43C641.545 1137.38 610.345 1137.81 576.799 1149.1C571.77 1150.79 564.078 1155.73 559.271 1158.16L558.823 1154.49C552.196 1154.3 533.32 1179.07 521.326 1183.54Z"/><path fill="#E5C8D1" transform="translate(-231 0)" d="M763.488 1220.4C785.119 1231.62 793.257 1252.41 790.547 1269.61C788.109 1271.55 789.471 1270.85 786.691 1271.89C770.191 1257.24 758.05 1252 731.434 1246.21C718.505 1244.48 706.847 1247.61 699.894 1238.37C712.953 1238.17 709.443 1237.25 721.682 1232.28L726.42 1233.3C728.944 1236.04 729.883 1237 733.664 1239.21C731.104 1240.09 732.206 1239.51 730.354 1240.94L732.371 1241.47L740.776 1238.23C745.096 1239.03 743.34 1238.29 746.229 1240.52C743.866 1240.36 741.703 1240.6 739.27 1240.74L739.052 1242.07L747.696 1242.15C753.923 1245.86 766.459 1249.45 772.988 1244.33C775.825 1234.88 768.205 1229.11 763.488 1220.4Z"/><path transform="translate(-231 0)" d="M333.24 420.013C330.934 416.722 330.358 414.387 331.523 410.894C346.6 365.658 541.184 257.767 604.934 232.194C619.135 226.497 645.401 215.275 662.621 217.895C667.871 220.943 665.697 219.133 668.261 224.054C677.685 269.493 705.559 326.106 725.222 370.974C727.072 375.195 737.152 396.291 740.007 399.553L741.74 404.256C751.866 424.171 762.629 445.279 774.186 464.864C789.732 455.461 852.009 414.753 878.606 429.847C880.772 431.076 883.277 436.1 885.046 437.773C895.728 452.064 889.192 467.967 882.242 482.379C878.633 489.861 870.826 499.781 869.453 507.057C874.642 509.711 875.968 507.77 882.652 509.285C876.144 509.145 871.223 508.448 865.992 510.679C862.675 514.005 862.246 514.645 859.845 518.328C849.556 531.676 837.315 544.092 825.058 556.717C793.457 584.536 775.28 600.621 738.907 626.795C716.44 641.783 690.568 655.355 670.337 668.827C636.983 686.191 605.951 700.394 567.945 713.157C568.035 713.127 565.905 719.946 565.917 719.909C565.853 717.03 565.773 716.945 564.634 714.144C553.162 716.049 540.927 719.972 529.502 722.627C496.616 730.271 463.638 734.748 428.979 730.617C420.366 725.397 418.261 722.796 414.159 715.678L413.186 714.546C397.374 695.449 420.319 678.612 438.78 664.143C453.531 652.582 473.635 640.733 491.396 631.065C459.558 581.216 424.595 532.23 386.594 484.228C370.835 464.21 351.115 438.763 333.24 420.013Z"/><path fill="#493C3C" transform="translate(-231 0)" d="M333.24 420.013C330.934 416.722 330.358 414.387 331.523 410.894C346.6 365.658 541.184 257.767 604.934 232.194C619.135 226.497 645.401 215.275 662.621 217.895C667.871 220.943 665.697 219.133 668.261 224.054C643.456 275.992 453.782 386.019 373.984 412.747C361.366 416.973 347.85 421.208 333.24 420.013Z"/><path fill="#493C3C" transform="translate(-231 0)" d="M613.436 598.008C676.016 571.016 743.894 510.635 774.24 464.814C780.91 476.246 787.922 487.871 794.368 499.33C736.457 571.682 649.858 636.903 525.743 662.145C521.186 663.067 516.611 663.953 512.021 664.802C508.71 659.39 491.485 633.574 493.577 629.978L495.905 629.13C500.708 634.653 504.825 635.859 513.081 639.132C517.566 639.035 541.865 640.543 541.321 640.654C548.442 639.197 575.033 626.003 582.009 623.216C586.522 623.227 587.898 623.545 591.767 622.109C593.543 615.039 597.084 612.882 594.706 607.6C597.767 604.065 606.637 602.577 613.436 598.008Z"/><path fill="#493C3C" transform="translate(-231 0)" d="M885.046 437.773C895.728 452.064 889.192 467.967 882.242 482.379C878.633 489.861 870.826 499.781 869.453 507.057C874.642 509.711 875.968 507.77 882.652 509.285C876.144 509.145 871.223 508.448 865.992 510.679C862.675 514.005 862.246 514.645 859.845 518.328C849.556 531.676 837.315 544.092 825.058 556.717C793.457 584.536 775.28 600.621 738.907 626.795C716.44 641.783 690.568 655.355 670.337 668.827C636.983 686.191 605.951 700.394 567.945 713.157C568.035 713.127 565.905 719.946 565.917 719.909C565.853 717.03 565.773 716.945 564.634 714.144C553.162 716.049 540.927 719.972 529.502 722.627C496.616 730.271 463.638 734.748 428.979 730.617C420.366 725.397 418.261 722.796 414.159 715.678C428.075 719.043 436.713 719.999 451.23 720.498C518.869 722.819 637.736 674.623 686.461 645.58C757.784 603.068 881.622 502.019 885.046 437.773Z"/><path fill="#4D3915" transform="translate(-231 0)" d="M532.558 624.145C533.793 623.575 533.066 624 534.263 622.595C515.073 617.949 501.453 598.116 497.596 586.337C494.509 576.912 494.147 519.154 502.4 512.875C506.378 514.766 506.827 515.106 510.188 517.481L509.683 519.456L506.643 518.935L505.179 519.938C500.215 534.705 503.968 585.451 515.267 600.658C516.973 602.955 531.157 610.89 537.324 611.564C554.864 613.48 550.887 597.078 561.862 592.603C568.85 591.711 569.58 594.924 576.319 594.651C604.316 563.3 615.193 492.422 637.428 457.49C639.491 454.248 642.764 449.569 647.65 448.297C653.788 455.343 638.445 517.258 645.356 523.114C651.608 515.93 652.915 509.368 661.788 504.439C654.705 524.536 630.747 546.941 616.511 565.534C602.103 584.352 579.46 601.931 551.984 613.271C543.587 616.737 537.966 614.462 534.729 617.18C540.181 621.106 554.961 617.088 561.236 615.286C564.212 616.815 563.505 616.327 565.916 618.285C575.368 613.497 612.033 575.866 617.297 574.63C615.692 579.86 605.834 588.264 600.623 592.53C602.871 594.347 601.684 593.5 604.17 595.081C598.701 600.505 590.371 596.681 584.538 606.665L586.039 608.181C590.558 608.324 590.41 608.414 594.706 607.6C597.084 612.882 593.543 615.039 591.767 622.109C587.898 623.545 586.522 623.227 582.009 623.216C575.033 626.003 548.442 639.197 541.321 640.654C541.865 640.543 517.566 639.035 513.081 639.132C504.825 635.859 500.708 634.653 495.905 629.13C505.201 629.382 523.769 626.413 532.558 624.145Z"/><path fill="#493C3C" transform="translate(-231 0)" d="M495.905 629.13C505.201 629.382 523.769 626.413 532.558 624.145C526.095 629.475 525.885 636.696 517.89 637.687C507.707 634.959 504.747 633.246 495.905 629.13Z"/><path transform="translate(-231 0)" d="M643.339 457.808L644.267 458.422C646.936 462.875 644.174 472.959 643.397 478.044C641.734 488.926 639.148 499.623 638.098 510.567C637.647 515.264 638.964 528.181 637.039 531.639L633.765 530.148L632.232 531.238L632.654 532.971L636.011 534.016L635.577 535.473C622.264 537.004 631.159 544.338 622.35 550.145L619.142 548.409C613.22 550.483 616.209 560.262 611.018 563.4C608.223 565.09 608.591 566.997 607.913 569.429C605.1 572.899 601.45 577.852 595.984 579.096C592.533 570.666 634.589 469.945 643.339 457.808Z"/><path fill="#F3AE00" transform="translate(-231 0)" d="M661.788 504.439C683.817 466.082 705.722 428.553 716.31 387.952C716.919 385.619 719.075 383.013 721.668 381.358L724.155 382.24C722.813 390.405 717.698 402.894 714.677 411.199C700.936 449.587 681.725 487.066 657.292 523.153C647.117 536.563 639.355 550.65 628.193 563.852C626.055 566.38 635.918 567.533 621.71 570.209L617.297 574.63C612.033 575.866 575.368 613.497 565.916 618.285C563.505 616.327 564.212 616.815 561.236 615.286C554.961 617.088 540.181 621.106 534.729 617.18C537.966 614.462 543.587 616.737 551.984 613.271C579.46 601.931 602.103 584.352 616.511 565.534C630.747 546.941 654.705 524.536 661.788 504.439Z"/><path fill="#39290D" transform="translate(-231 0)" d="M740.007 399.553L741.74 404.256C733.514 430.013 690.06 537.89 661.712 550.524C657.253 552.512 651.792 553.701 647.593 555.896C639.493 560.13 631.851 572.787 626.674 578.937C628.607 583.723 628.324 584.415 623.505 588.299C618.843 588.331 621.164 588.525 616.505 586.551C612.825 589.563 611.759 594.338 613.436 598.008C606.637 602.577 597.767 604.065 594.706 607.6C590.41 608.414 590.558 608.324 586.039 608.181L584.538 606.665C590.371 596.681 598.701 600.505 604.17 595.081C601.684 593.5 602.871 594.347 600.623 592.53C605.834 588.264 615.692 579.86 617.297 574.63L621.71 570.209C635.918 567.533 626.055 566.38 628.193 563.852C639.355 550.65 647.117 536.563 657.292 523.153L659.039 528.475C654.915 534.321 648.722 541.567 656.464 546.913L659.672 546.974C687.849 532.67 729.681 426.753 740.007 399.553Z"/><path fill="#75684C" transform="translate(-231 0)" d="M477.921 575.031L479.788 575.951C484.26 581.168 481.472 590.894 480.355 596.94C475.608 591.097 477.176 581.533 477.921 575.031Z"/><path fill="#F4E5C2" transform="translate(-231 0)" d="M2777.29 1272.86C2782.17 1263.71 2787.84 1253.63 2807.34 1258.72C2822 1262.56 2842.8 1280.22 2848.61 1289.58L2848.25 1291.34C2834.23 1297.34 2821.25 1295.78 2817.14 1308.45C2809.52 1331.97 2835.58 1445.66 2856.01 1464.78C2865.17 1473.36 2878.02 1480.41 2874.85 1491.85C2872.01 1502.11 2863.43 1511.85 2862.63 1522.34C2861.31 1539.65 2879.31 1632.39 2893.15 1645.85C2900.14 1652.64 2920.98 1655.93 2918.58 1664.13C2916.46 1671.42 2908.29 1678.34 2898.87 1682.37C2889.12 1686.55 2877.21 1688.07 2865.74 1686.58C2858.76 1685.67 2854.89 1683.89 2849.49 1681.06C2836.5 1689.51 2828.87 1698.08 2810.17 1690.13C2793.57 1681.89 2784.64 1676.72 2775.63 1663.99C2771.85 1661.25 2769.57 1655.59 2770.17 1651.87C2781.23 1647.54 2805.98 1665.63 2804.81 1632.38C2801.46 1625.39 2799.72 1613.17 2797.93 1605.67C2788.63 1566.72 2783.29 1527.39 2775.14 1488.34C2773.27 1479.38 2770.81 1469.17 2770.24 1460.2C2768.01 1452.98 2766.06 1445.72 2764.4 1438.43C2741.91 1489.91 2729.66 1552.04 2721.62 1605.13C2719.53 1618.95 2720.43 1639.17 2719.09 1654.24C2694.4 1658.68 2672.32 1661.97 2647.59 1656.14C2642.8 1653.61 2642.15 1650.33 2641.34 1646.5C2634.02 1611.95 2631.06 1577.05 2625.76 1542.4C2621.12 1512.06 2614.73 1481.95 2610.38 1451.51L2605.38 1435.12C2592.03 1470.42 2588.32 1505.67 2584.31 1541.72C2579.54 1577.58 2571.13 1613.52 2563.29 1649.14C2560.85 1660.25 2586.01 1662.27 2579.79 1670.47C2567.05 1687.29 2556.41 1703.14 2527.6 1688.37C2510.98 1688.04 2513.01 1696.26 2491.36 1689.14C2480.09 1682.52 2473.56 1674.56 2470.91 1664.89C2469.07 1661.22 2467.94 1652.61 2467.19 1648.42C2472.61 1651.38 2480.68 1656.36 2487.44 1657.4C2508.1 1660.6 2510.39 1630.73 2513.03 1621.52C2512.64 1614.6 2516.06 1605.03 2516.82 1598.7C2518.95 1580.82 2534.2 1522.24 2527.94 1507.82C2525.18 1505.29 2523.74 1502.45 2521.84 1499.53C2519.5 1496.17 2517.25 1492.19 2515.14 1488.72C2508.79 1474.38 2539.37 1464.07 2545.4 1450.95C2551.14 1438.45 2549.86 1425.16 2554.29 1412.33C2555.41 1398.94 2558.58 1384.38 2560.7 1371.27C2563.79 1352.13 2582.21 1307.72 2571.24 1291.68C2556.73 1290.39 2553.05 1296.24 2545.05 1295.41C2546.91 1285 2575.16 1262.52 2592.58 1261.92C2600.54 1263.96 2605.67 1268.29 2613.54 1265.8C2623.38 1262.67 2627.73 1259.28 2639.31 1262.2C2652.6 1265.56 2683.64 1280.49 2680.89 1290.89C2676.41 1293.69 2674.93 1294.25 2669.61 1296.46C2650.88 1325.49 2666.91 1353.99 2671.42 1384.52C2673.21 1396.67 2683.17 1475.01 2694.44 1478.15C2701.85 1472.19 2702.72 1439.96 2705.81 1430.58C2703.24 1420.17 2712.33 1404.12 2712.92 1394.05C2714.25 1371.15 2729.42 1335.8 2727.3 1314.09C2725.78 1311.04 2725.21 1307.39 2724.47 1304.15C2722.33 1300.64 2720.95 1299.13 2718 1295.84C2711.07 1295.04 2709.21 1295.66 2705.1 1293.09C2703.89 1283.84 2736.9 1264.42 2750.78 1262.4C2756.99 1261.49 2772.15 1270.28 2777.29 1272.86Z"/><path fill="#F9EFE1" transform="translate(-231 0)" d="M2610.38 1451.51C2610.59 1442.71 2609.64 1438.18 2614.9 1430.07L2617.39 1428.76C2629.25 1433.29 2633.51 1475.46 2635.24 1485.92L2651.82 1592.56C2653.96 1605.55 2655.58 1618.48 2657.87 1631.45C2660.71 1647.58 2690.05 1634.29 2702.56 1642.17C2703.48 1645.34 2702.87 1645.33 2700.61 1648.35C2688.82 1653.55 2662.12 1656.15 2647.59 1656.14C2642.8 1653.61 2642.15 1650.33 2641.34 1646.5C2634.02 1611.95 2631.06 1577.05 2625.76 1542.4C2621.12 1512.06 2614.73 1481.95 2610.38 1451.51Z"/><path fill="#F8EFF1" transform="translate(-231 0)" d="M2770.24 1460.2C2770.61 1452.32 2768.26 1439.62 2773.75 1433.36L2776.35 1432.71C2787.14 1439.21 2802.7 1550.1 2807.27 1569.09C2810.78 1583.66 2820.41 1622.66 2821.12 1637.16C2821.27 1639.96 2821.27 1642.76 2821.13 1645.55L2819.96 1645.53L2817.67 1640.85C2814.26 1643.06 2815.66 1641.74 2815.43 1646.07L2815.18 1643.82L2812.24 1643.03C2809.09 1639.13 2806.7 1636.59 2804.81 1632.38C2801.46 1625.39 2799.72 1613.17 2797.93 1605.67C2788.63 1566.72 2783.29 1527.39 2775.14 1488.34C2773.27 1479.38 2770.81 1469.17 2770.24 1460.2Z"/><path fill="#F9EFE1" transform="translate(-231 0)" d="M2718 1295.84C2718.89 1290.66 2717.34 1292.81 2722.45 1289.05C2728.68 1287.6 2725.55 1287.8 2732.21 1288.58C2740.43 1292.4 2740.84 1294.82 2742.55 1301.62C2744.77 1310.5 2745.38 1319.51 2744.39 1328.48C2740.7 1363.94 2728.38 1400.75 2723.24 1436.22C2721.69 1446.92 2720.72 1463.98 2714.5 1473.51L2712.03 1474.59C2702.33 1469.51 2708.09 1440.51 2705.81 1430.58C2703.24 1420.17 2712.33 1404.12 2712.92 1394.05C2714.25 1371.15 2729.42 1335.8 2727.3 1314.09C2725.78 1311.04 2725.21 1307.39 2724.47 1304.15C2722.33 1300.64 2720.95 1299.13 2718 1295.84Z"/><path fill="#F8EFF1" transform="translate(-231 0)" d="M2724.47 1304.15C2724.03 1299.6 2722.98 1297.15 2726.04 1293.29L2728.67 1292.8C2736.36 1297.08 2742.26 1311.03 2736.74 1317.12L2733.49 1317.38L2727.3 1314.09C2725.78 1311.04 2725.21 1307.39 2724.47 1304.15Z"/><path fill="#F9EFE1" transform="translate(-231 0)" d="M2571.24 1291.68C2571.08 1287.92 2570.8 1286.97 2573.71 1283.5C2577.85 1281.54 2575.55 1281.95 2580.91 1282.45C2607.73 1294.32 2582.06 1356.77 2578.56 1376.07C2575.32 1393.88 2571.47 1441.19 2560.98 1454.32L2558.71 1454.75C2551.37 1446.65 2556.16 1423.62 2554.29 1412.33C2555.41 1398.94 2558.58 1384.38 2560.7 1371.27C2563.79 1352.13 2582.21 1307.72 2571.24 1291.68Z"/><path fill="#F8EFF1" transform="translate(-231 0)" d="M2575.96 1285.98C2578.52 1286.59 2579.83 1287.13 2582.24 1287.95C2588.81 1293.47 2586.56 1298.85 2585.56 1305.73C2584.45 1304.98 2583.35 1304.23 2582.27 1303.46C2574.19 1297.67 2575.36 1293.66 2575.96 1285.98Z"/><path fill="#F9EFE1" transform="translate(-231 0)" d="M2515.14 1488.72C2520.14 1486.22 2520.45 1486.42 2526.45 1485.61C2552.25 1489.98 2548.24 1533.74 2544.61 1546.39C2536.61 1574.18 2537.06 1628.91 2521.24 1653.41L2521.33 1653.28L2519.44 1655.77L2518.06 1653.64C2515.5 1655.66 2516.42 1654.87 2515.67 1657.84C2511.49 1653.76 2514.5 1630.19 2513.03 1621.52C2512.64 1614.6 2516.06 1605.03 2516.82 1598.7C2518.95 1580.82 2534.2 1522.24 2527.94 1507.82C2525.18 1505.29 2523.74 1502.45 2521.84 1499.53C2519.5 1496.17 2517.25 1492.19 2515.14 1488.72Z"/><path fill="#F8EFF1" transform="translate(-231 0)" d="M2521.84 1499.53C2521.16 1494.32 2519.75 1494.42 2523.22 1491.05C2532.91 1490.68 2542.62 1503.72 2537.26 1509.88C2531.95 1509.71 2532.98 1509.58 2527.94 1507.82C2525.18 1505.29 2523.74 1502.45 2521.84 1499.53Z"/><path fill="#F8EFF1" transform="translate(-231 0)" d="M2775.63 1663.99L2777.8 1662.45C2787.63 1665.8 2795.7 1668.83 2806.67 1671C2823.41 1674.33 2832.29 1687.65 2810.17 1690.13C2793.57 1681.89 2784.64 1676.72 2775.63 1663.99Z"/><path fill="#F8EFF1" transform="translate(-231 0)" d="M2470.91 1664.89L2474.52 1664.37C2477.25 1666.36 2482.35 1669.87 2484.58 1671.72C2490.49 1676.62 2502.69 1674.99 2507.06 1679.19C2506.3 1685.3 2499.95 1687.79 2491.36 1689.14C2480.09 1682.52 2473.56 1674.56 2470.91 1664.89Z"/><path fill="#F4E5C2" transform="translate(-231 0)" d="M1858.34 1279.16C1851.54 1280.26 1844.24 1282.7 1839.53 1282.01C1840.98 1273.48 1878.65 1245.52 1895.73 1247.73C1911.26 1249.74 1918.37 1259.88 1932.64 1251.91C1954.27 1238.84 1966.83 1234.01 1996.07 1235.56C2057.16 1238.78 2077.09 1269.97 2088.61 1301.19C2107.13 1351.35 2101.59 1392.82 2070.48 1439.22C2068.09 1442.78 2084.33 1449.55 2085.74 1452.71C2099.84 1470.89 2108.83 1491.18 2114.61 1511.1C2125.85 1549.92 2117.92 1589.73 2129.37 1628.66C2132.77 1640.23 2159.77 1635.16 2155.51 1650.04C2150.27 1670.44 2109.46 1704.57 2074.26 1690.83C2060.01 1683.84 2046.9 1673.31 2043.73 1661.58C2032.85 1621.36 2035.94 1578.75 2033.47 1537.88C2029.13 1523.5 2035.3 1494.45 2018.43 1482.85C2002.92 1483.48 1971.58 1482.77 1972.91 1496.19C1977.01 1537.76 1969.7 1579.34 1972.97 1620.88C1973.67 1629.81 1978.31 1655.35 1998.61 1652.25C2005.73 1651.11 2016.25 1646.42 2022.75 1643.62C2016.35 1656.94 1989.11 1711.13 1954.72 1695.11C1948.04 1692.73 1947.39 1692.61 1942.33 1689.06L1941.99 1687.97L1937.34 1684.22C1931.57 1684.47 1921.8 1691.6 1909.24 1695.01C1899.49 1693.83 1894.77 1693.81 1886.73 1690.04C1876.59 1682.55 1869.51 1677.42 1860.93 1669.05C1854.29 1662.88 1847.33 1656.72 1840.56 1650.6C1849.13 1651.66 1858.3 1653.72 1866.91 1654.12C1897.62 1655.55 1892.41 1631.32 1892.2 1618.23C1883.7 1578.02 1894.68 1530.34 1881.95 1489.57C1878.68 1479.09 1869.16 1464.5 1862.32 1454.77C1865.84 1450.36 1879.37 1431.99 1879.7 1426.74C1882.45 1382.44 1880.59 1334.71 1871.89 1290.66C1870.61 1284.21 1865.61 1282.04 1858.34 1279.16ZM2026.21 1398.64C2032.14 1376.55 2032.81 1329.93 2021.52 1308.45C2016.42 1298.75 2007.19 1291.32 1992.57 1286.98C1984.98 1287.11 1980.01 1286.81 1972.95 1288.63C1968.3 1292.06 1970.88 1410.27 1976.41 1418.35C1994.74 1424.6 2018.29 1408.51 2026.21 1398.64Z"/><path fill="#F8EFF1" transform="translate(-231 0)" d="M1858.34 1279.16C1858.14 1275.64 1857.76 1275.74 1860.39 1272.74C1868.23 1269.34 1883.74 1272.84 1885.86 1277.01C1893.39 1291.75 1893.05 1308.78 1895.54 1324.16C1898.96 1357.29 1897.82 1391.08 1899.7 1424.33C1900.06 1430.6 1885.5 1447.88 1886.79 1455.47C1888.15 1463 1899.74 1481.37 1901.31 1488.24C1908.73 1520.76 1907 1557.55 1907.76 1590.5C1908.05 1602.64 1913.76 1638.35 1908.57 1647.48C1902.81 1645.47 1904.36 1636.71 1904.35 1632.38L1902.33 1649.75C1899.88 1642.93 1894.65 1622.51 1892.2 1618.23C1883.7 1578.02 1894.68 1530.34 1881.95 1489.57C1878.68 1479.09 1869.16 1464.5 1862.32 1454.77C1865.84 1450.36 1879.37 1431.99 1879.7 1426.74C1882.45 1382.44 1880.59 1334.71 1871.89 1290.66C1870.61 1284.21 1865.61 1282.04 1858.34 1279.16Z"/><path fill="#493C3C" transform="translate(-231 0)" d="M1954.72 1695.11C1961.06 1695.71 1967.36 1696.74 1972.64 1693.7C1984.45 1686.91 1990.82 1680.81 1992.82 1670.59C1989.53 1664.8 1979.39 1663.3 1975.08 1659.2C1956.7 1641.71 1958.18 1616.44 1958.23 1595.68C1958.27 1574.65 1959.61 1557.19 1960.41 1535.25C1960.81 1524.25 1955.79 1496.36 1964.91 1485.76C1972.19 1482.21 2008.19 1481.71 2018.43 1482.85C2002.92 1483.48 1971.58 1482.77 1972.91 1496.19C1977.01 1537.76 1969.7 1579.34 1972.97 1620.88C1973.67 1629.81 1978.31 1655.35 1998.61 1652.25C2005.73 1651.11 2016.25 1646.42 2022.75 1643.62C2016.35 1656.94 1989.11 1711.13 1954.72 1695.11Z"/><path fill="#F8EFF1" transform="translate(-231 0)" d="M2033.47 1537.88C2033.84 1533.95 2034.27 1530.03 2034.73 1526.11L2036.68 1526.11C2039.38 1536.53 2051.9 1544.8 2053.27 1553.44C2058.96 1589.17 2047.44 1628.19 2063.26 1663.13C2066.68 1670.67 2093.17 1675.22 2098.31 1680.29C2095.25 1686.09 2082.89 1689.43 2074.26 1690.83C2060.01 1683.84 2046.9 1673.31 2043.73 1661.58C2032.85 1621.36 2035.94 1578.75 2033.47 1537.88Z"/><defs><linearGradient id="gradient_0" gradientUnits="userSpaceOnUse" x1="1952.3408" y1="1672.3448" x2="1944.5156" y2="1681.0812"><stop offset="0" stop-color="#FBF0D9"/><stop offset="1" stop-color="#FCF6FA"/></linearGradient></defs><path fill="url(#gradient_0)" transform="translate(-231 0)" d="M1941.99 1687.97C1942.52 1679.05 1934.22 1671.91 1935.18 1666.8C1944.54 1663.65 1969.01 1674.48 1973.23 1679.9C1971.56 1688.25 1953.05 1689.93 1942.33 1689.06L1941.99 1687.97Z"/><path fill="#F8EFF1" transform="translate(-231 0)" d="M1860.93 1669.05L1863.14 1666.79C1877.94 1669.49 1896.98 1672.06 1906.54 1680.26C1908.13 1687.26 1895.68 1689.02 1886.73 1690.04C1876.59 1682.55 1869.51 1677.42 1860.93 1669.05Z"/><path fill="#F8EFF1" transform="translate(-231 0)" d="M1986.88 1285.27C1980.85 1283.47 1974.8 1279.01 1972.55 1274.81C1973.21 1270.88 1972.17 1272.7 1976.61 1269.39C2003.86 1261.87 2026.44 1287.68 2035.08 1301.1C2045.45 1317.21 2054.03 1390.46 2040.42 1402.41C2039.01 1399.24 2042.8 1391.89 2041.98 1386.62C2041.2 1381.62 2041.79 1373.98 2041.55 1368.61C2038.5 1371.08 2044.51 1399.52 2035.31 1404.75C2030.87 1407.27 2028.21 1408 2023.05 1409.73C2018.75 1415.11 2015.94 1418.89 2008.67 1422.89C1989.01 1433.62 1963.27 1439.26 1960.71 1416.34C1956.81 1381.43 1958.42 1346.62 1957.05 1311.67C1956.75 1304.05 1955.95 1295.44 1958.43 1287.98C1967.67 1281.96 1968.88 1286.39 1984.97 1285.4L1986.88 1285.27ZM2026.21 1398.64C2032.14 1376.55 2032.81 1329.93 2021.52 1308.45C2016.42 1298.75 2007.19 1291.32 1992.57 1286.98C1984.98 1287.11 1980.01 1286.81 1972.95 1288.63C1968.3 1292.06 1970.88 1410.27 1976.41 1418.35C1994.74 1424.6 2018.29 1408.51 2026.21 1398.64Z"/><path fill="#493C3C" transform="translate(-231 0)" d="M2023.05 1409.73C2018.75 1415.11 2015.94 1418.89 2008.67 1422.89C1989.01 1433.62 1963.27 1439.26 1960.71 1416.34C1956.81 1381.43 1958.42 1346.62 1957.05 1311.67C1956.75 1304.05 1955.95 1295.44 1958.43 1287.98C1967.67 1281.96 1968.88 1286.39 1984.97 1285.4L1986.88 1285.27L1992.57 1286.98C1984.98 1287.11 1980.01 1286.81 1972.95 1288.63C1968.3 1292.06 1970.88 1410.27 1976.41 1418.35C1994.74 1424.6 2018.29 1408.51 2026.21 1398.64C2025.75 1403.78 2025.42 1404.8 2023.05 1409.73Z"/><path fill="#F4E5C2" transform="translate(-231 0)" d="M1212.65 1267.85C1205.8 1267.76 1191.99 1268.57 1187.15 1267.03C1179.14 1255.79 1222.73 1226.93 1239.08 1222.38C1241.37 1221.75 1243.67 1221.14 1245.99 1220.56C1258.78 1226.04 1261.53 1227.95 1271.59 1236.02C1296.22 1211.11 1308.36 1227.14 1331.4 1243.41C1338.18 1248.21 1355.04 1260.77 1352.78 1267.38C1341.48 1270.36 1328.73 1263.15 1321.6 1273.92C1312.52 1287.65 1314.05 1406.48 1325.14 1422.26C1330.55 1429.95 1339.77 1436.31 1345.75 1443.8C1339.7 1450.33 1319.84 1473.7 1319.17 1480.87C1314.98 1525.63 1310.31 1574.95 1321.97 1619.18C1327.33 1639.53 1342.66 1644.67 1371.43 1642.86C1384.36 1634.13 1387.95 1631.04 1394.48 1619.28C1397.04 1602.3 1398.78 1587.78 1400.57 1570.74C1401 1542.51 1400.4 1514.28 1398.75 1486.07C1395.57 1482.4 1391.72 1466.59 1384.66 1457.76C1381.6 1454.76 1377.74 1451.79 1374.24 1448.96C1368.67 1439.01 1395.8 1416.49 1398.4 1405.84C1401.56 1392.89 1400.46 1375.51 1400.79 1361.91C1396.21 1340.02 1409.92 1280.36 1391.23 1266.14C1381.62 1265.73 1375.14 1267.24 1366.04 1268.87C1364.18 1267.44 1361.74 1265.7 1363.04 1263.56C1373.09 1247.11 1389.5 1231.28 1415.11 1224.53C1421.84 1226.49 1434.22 1232.88 1437.56 1233.16C1443.18 1231.16 1449.2 1226.86 1456.13 1228.72C1469.72 1232.37 1502.66 1257.85 1499.66 1266.83C1492.69 1271.22 1480.89 1269.15 1471.37 1268.64C1467.98 1307.85 1465.43 1342.16 1468.61 1381.62C1471.52 1417.73 1473.37 1407.72 1496.33 1438.05C1491.02 1449.42 1470.31 1474.09 1469.77 1483.04C1466.08 1544.05 1485.57 1610.63 1441.57 1667.53C1419.55 1696 1395.15 1705.92 1346.33 1706.61C1330.33 1706.84 1324.04 1708.11 1307.88 1703.93C1302.32 1702.31 1298.68 1700.78 1293.47 1698.7C1212.55 1675.76 1227.4 1568.46 1224.12 1522.42C1222.99 1506.66 1226.27 1490.01 1222.2 1473.89L1221.82 1472.44C1219.29 1467.91 1212.38 1459.47 1208.82 1454.87L1203.27 1448.21C1194.18 1435.41 1220.71 1424.14 1223.52 1413.51C1226.89 1400.74 1225.3 1380 1225.83 1366.2C1224.9 1362.61 1225.27 1351.21 1225.07 1346.95C1224.3 1330.23 1225.61 1312.46 1223.29 1295.87C1222.09 1287.3 1219.36 1279.35 1216.72 1270.94L1212.65 1267.85Z"/><path fill="#493C3C" transform="translate(-231 0)" d="M1212.65 1267.85C1205.8 1267.76 1191.99 1268.57 1187.15 1267.03C1179.14 1255.79 1222.73 1226.93 1239.08 1222.38C1241.37 1221.75 1243.67 1221.14 1245.99 1220.56C1258.78 1226.04 1261.53 1227.95 1271.59 1236.02C1296.22 1211.11 1308.36 1227.14 1331.4 1243.41C1338.18 1248.21 1355.04 1260.77 1352.78 1267.38C1341.48 1270.36 1328.73 1263.15 1321.6 1273.92C1312.52 1287.65 1314.05 1406.48 1325.14 1422.26C1330.55 1429.95 1339.77 1436.31 1345.75 1443.8C1339.7 1450.33 1319.84 1473.7 1319.17 1480.87C1314.98 1525.63 1310.31 1574.95 1321.97 1619.18C1327.33 1639.53 1342.66 1644.67 1371.43 1642.86C1384.36 1634.13 1387.95 1631.04 1394.48 1619.28C1392.47 1631.9 1383.33 1650.41 1362.89 1655.08C1354.81 1656.93 1345.91 1656.58 1338.24 1654.11C1282.45 1636.39 1304.99 1516.11 1305.48 1480.73C1305.51 1478.58 1313.06 1467.78 1314.98 1465.81C1340.11 1445.52 1309.87 1431.45 1308.53 1421.99C1304.21 1391.56 1293.63 1289.94 1313.73 1265.62C1322.11 1261.77 1325.33 1266.8 1338.29 1264.79L1339.15 1263.07C1333.6 1256.99 1324.4 1254.84 1316.94 1250.36C1309.78 1246.05 1300.99 1236.97 1291.12 1234.95C1278.82 1232.43 1281.09 1241.73 1270.43 1245.74C1256.84 1246.67 1255.39 1239.78 1245.8 1235.59C1230.15 1228.74 1190.93 1254.19 1194.18 1263.97C1199.72 1266.43 1205.7 1265.93 1213.29 1266.38L1212.65 1267.85Z"/><path fill="#493C3C" transform="translate(-231 0)" d="M1415.11 1224.53C1421.84 1226.49 1434.22 1232.88 1437.56 1233.16C1443.18 1231.16 1449.2 1226.86 1456.13 1228.72C1469.72 1232.37 1502.66 1257.85 1499.66 1266.83C1492.69 1271.22 1480.89 1269.15 1471.37 1268.64C1467.98 1307.85 1465.43 1342.16 1468.61 1381.62C1471.52 1417.73 1473.37 1407.72 1496.33 1438.05C1491.02 1449.42 1470.31 1474.09 1469.77 1483.04C1466.08 1544.05 1485.57 1610.63 1441.57 1667.53C1419.55 1696 1395.15 1705.92 1346.33 1706.61C1330.33 1706.84 1324.04 1708.11 1307.88 1703.93C1331.16 1705.76 1364.52 1706.91 1386.53 1700.93C1405.81 1695.7 1416.8 1682.93 1425.76 1671.42C1463.07 1623.56 1457.33 1571.14 1456.54 1519.14C1456.36 1507.45 1452.89 1492.85 1455.94 1481.45C1458.59 1471.58 1469 1462.86 1474.82 1453.65C1484.87 1437.73 1468.05 1430.02 1459.9 1416.31C1451.16 1401.61 1449.69 1279.88 1461.21 1267.72C1463.5 1265.3 1464.3 1264.95 1468.24 1264.28L1473.06 1266.45C1479.4 1266.89 1480.71 1267.21 1486.92 1265.93L1487.69 1264.3C1483.35 1257.01 1459.3 1245.7 1448.82 1239.87C1427.09 1250.31 1430.47 1243.5 1411.79 1238.19C1400.32 1234.93 1365.01 1252.6 1376.82 1262.01C1380.55 1264.99 1385.87 1264.75 1391.48 1265.38L1391.23 1266.14C1381.62 1265.73 1375.14 1267.24 1366.04 1268.87C1364.18 1267.44 1361.74 1265.7 1363.04 1263.56C1373.09 1247.11 1389.5 1231.28 1415.11 1224.53Z"/><path fill="#FBF7F4" transform="translate(-231 0)" d="M1203.27 1448.21C1205.81 1444.47 1212.64 1442.71 1218.41 1440.57C1247.88 1472.21 1239.88 1489.67 1241.26 1525.16C1242.92 1567.54 1238.09 1613.43 1260.33 1653.75C1273.54 1677.7 1304.48 1688.27 1341.87 1689.09C1311.04 1690.64 1314.53 1689.3 1288.37 1681.68C1282.6 1680 1276.81 1679.77 1271.83 1676.94C1245.52 1661.98 1243.63 1624.98 1238.5 1621.21C1230.6 1635.76 1253.49 1676.34 1272.17 1685.23L1274.22 1684.94L1275.12 1683.31C1293.42 1685.68 1301.94 1694.03 1325.93 1694.86C1338.51 1695.3 1368.96 1690.08 1374.12 1692.28C1369.57 1695.81 1366.88 1695.6 1358.59 1695.98C1336.39 1696.99 1315.79 1699.12 1293.47 1698.7C1212.55 1675.76 1227.4 1568.46 1224.12 1522.42C1222.99 1506.66 1226.27 1490.01 1222.2 1473.89L1221.82 1472.44C1219.29 1467.91 1212.38 1459.47 1208.82 1454.87L1203.27 1448.21Z"/><path fill="#F8EFF1" transform="translate(-231 0)" d="M1208.82 1454.87C1210.34 1450.08 1208.89 1450.77 1213.48 1448.35C1223.88 1450.89 1235.78 1468.25 1230.24 1474.64C1225.01 1474.49 1226.94 1474.57 1221.82 1472.44C1219.29 1467.91 1212.38 1459.47 1208.82 1454.87Z"/><path fill="#F9EFE1" transform="translate(-231 0)" d="M1374.24 1448.96C1380.27 1445.26 1387.29 1440.7 1393.57 1437.32C1400.03 1449.1 1412.49 1466.56 1414.6 1478.19C1419.02 1502.57 1421.84 1609.21 1409.01 1627.29C1408.26 1622.04 1408.31 1617.86 1408.34 1612.64C1407.57 1616.68 1406.53 1624.96 1404.24 1628.34C1397.37 1623.27 1403.7 1582.74 1400.57 1570.74C1401 1542.51 1400.4 1514.28 1398.75 1486.07C1395.57 1482.4 1391.72 1466.59 1384.66 1457.76C1381.6 1454.76 1377.74 1451.79 1374.24 1448.96Z"/><path fill="#F8EFF1" transform="translate(-231 0)" d="M1384.66 1457.76C1384.14 1453.82 1383.16 1451.55 1385.89 1448.06L1388.62 1447.45C1399.42 1452.52 1406.43 1470.11 1408.47 1478.65C1410.43 1486.47 1410.74 1494.42 1409.4 1502.3C1406.9 1496.72 1405.1 1489.83 1398.75 1486.07C1395.57 1482.4 1391.72 1466.59 1384.66 1457.76Z"/><path fill="#FBF7F4" transform="translate(-231 0)" d="M1213.29 1266.38C1213.13 1263.62 1212.92 1261.25 1212.56 1258.49C1214.68 1255.46 1214.31 1255.15 1218.45 1253.37C1232.1 1255.38 1238.71 1280.93 1239.65 1289.02C1244.24 1328.7 1241.43 1369.25 1241.45 1408.98C1241.45 1409.01 1237.89 1414.85 1237.52 1415.61C1219.91 1407.06 1232.62 1378.25 1225.83 1366.2C1224.9 1362.61 1225.27 1351.21 1225.07 1346.95C1224.3 1330.23 1225.61 1312.46 1223.29 1295.87C1222.09 1287.3 1219.36 1279.35 1216.72 1270.94L1212.65 1267.85L1213.29 1266.38Z"/><path fill="#F8EFF1" transform="translate(-231 0)" d="M1216.72 1270.94C1216.66 1266.58 1215.8 1261.82 1218.68 1258.03C1228.37 1261.17 1235.13 1292.72 1232.14 1299.99L1230.19 1299C1227.68 1297.75 1225.91 1296.98 1223.29 1295.87C1222.09 1287.3 1219.36 1279.35 1216.72 1270.94Z"/><path fill="#F8EFF1" transform="translate(-231 0)" d="M1391.48 1265.38L1391.06 1264.02C1389.62 1259.09 1389.11 1258.61 1391.24 1254.03L1393.25 1252.58C1428.13 1254.01 1415.59 1335.45 1415.91 1352.85C1416.14 1365.3 1417.87 1399.91 1412.85 1410.15C1412.16 1405.47 1412 1401.04 1411.76 1396.35C1411.16 1403.07 1410.63 1409.79 1410.18 1416.51C1407.4 1408.87 1405.6 1403.93 1404.17 1396.3C1402.66 1388.27 1404.5 1368.19 1400.79 1361.91C1396.21 1340.02 1409.92 1280.36 1391.23 1266.14L1391.48 1265.38Z"/><path fill="#F4E5C2" transform="translate(-231 0)" d="M1542.92 1269.83C1552.46 1251.25 1585.36 1231.8 1618.08 1239.61C1622.15 1240.59 1627.74 1246.19 1630.35 1248.62C1657.49 1236.59 1658.9 1228.17 1698.63 1234.09C1810.61 1251.05 1831.05 1348.1 1810.75 1409.49C1800.08 1444.17 1775.76 1484.4 1721.38 1498.64C1706.4 1502.56 1668.9 1495.75 1669.32 1507.21C1670.55 1540.17 1660.92 1622.23 1680.29 1648.84C1691.3 1652.21 1696.2 1653.22 1707.9 1655.49C1699.05 1671.69 1677.46 1700.27 1644.35 1688.94L1642.14 1687.46C1632.35 1684.18 1626.36 1682.31 1619.98 1676.53C1606.4 1678.8 1600.2 1685.66 1579.13 1686.3C1556.63 1686.97 1538.29 1671.59 1534.29 1658.56C1531.51 1649.5 1556.56 1657.38 1567.54 1648.72C1585.72 1634.39 1581.57 1610.17 1580.86 1592.88C1579.51 1559.09 1583.27 1517.41 1574.16 1484.55C1572.99 1480.36 1562.72 1466.88 1559.23 1462.21C1557.35 1461.03 1553.61 1456.68 1552.04 1454.99C1564.24 1444.17 1578.16 1434.94 1577.03 1421.84C1572.17 1389.46 1584.08 1338.67 1572.77 1306.21C1571.72 1303.2 1565.81 1299.19 1562.48 1296.89C1549.73 1294.17 1542.72 1294.75 1529.23 1294.78C1533.67 1286.1 1537.76 1278.34 1542.92 1269.83ZM1703.01 1432.96C1736.38 1419.64 1740.32 1288.97 1687.86 1291.82C1680.48 1295 1661.92 1305.28 1663.28 1310.61C1667.66 1327.82 1639.93 1460.44 1703.01 1432.96Z"/><path fill="#493C3C" transform="translate(-231 0)" d="M1542.92 1269.83C1552.46 1251.25 1585.36 1231.8 1618.08 1239.61C1622.15 1240.59 1627.74 1246.19 1630.35 1248.62C1657.49 1236.59 1658.9 1228.17 1698.63 1234.09C1810.61 1251.05 1831.05 1348.1 1810.75 1409.49C1800.08 1444.17 1775.76 1484.4 1721.38 1498.64C1706.4 1502.56 1668.9 1495.75 1669.32 1507.21C1670.55 1540.17 1660.92 1622.23 1680.29 1648.84C1691.3 1652.21 1696.2 1653.22 1707.9 1655.49C1699.05 1671.69 1677.46 1700.27 1644.35 1688.94C1652.38 1690.28 1656.32 1691.05 1664.2 1688.42C1673.45 1685.33 1680.91 1680.82 1683.97 1674.19C1684.25 1673.78 1685.4 1668.87 1685.24 1668.71C1678.5 1661.38 1668.41 1655.53 1662.95 1647.63C1662.11 1646.41 1660.45 1644.79 1660.11 1643.42C1654.57 1620.83 1656.45 1597.66 1655.73 1574.85C1655.11 1554.64 1653.33 1535.32 1654.71 1515.25C1655.03 1510.63 1657.21 1503.3 1660.67 1499.35C1660.93 1499.05 1662.74 1497.45 1662.95 1497.47C1674.52 1498.05 1691.15 1498.77 1702.19 1498.74C1710.75 1498.71 1719.57 1497.1 1726.77 1495.88C1760.11 1474.83 1776.86 1459.64 1789.93 1429.92C1809.75 1383.44 1812.41 1333.58 1776.87 1290.17C1750.97 1258.54 1695.23 1232.14 1640.03 1251.6C1637.3 1255.17 1636.64 1256.01 1632.96 1259.15C1617.95 1263.24 1591.89 1231.2 1542.92 1269.83Z"/><path fill="#F8EFF1" transform="translate(-231 0)" d="M1559.23 1462.21C1563.17 1458.79 1562.91 1458.93 1568.67 1456.86C1572.61 1457.13 1574.77 1457.17 1577.17 1459.7C1599.87 1483.84 1593.86 1513.97 1595.64 1540.92C1597.05 1562.19 1597.09 1583.33 1596.74 1604.6C1596.55 1616.16 1597.63 1627.69 1593.57 1638.97L1593.32 1622.8C1592.54 1627.04 1591.85 1634.38 1589.39 1637.93L1590.71 1635.95C1581.22 1630.87 1587.38 1598.23 1580.86 1592.88C1579.51 1559.09 1583.27 1517.41 1574.16 1484.55C1572.99 1480.36 1562.72 1466.88 1559.23 1462.21Z"/><path fill="#F8EFF1" transform="translate(-231 0)" d="M1562.48 1296.89C1556.95 1287.3 1540.68 1287.06 1552.84 1276.81C1557.59 1276.28 1557.99 1276.67 1562.37 1278.53C1613.27 1300.14 1588.47 1354.86 1592.68 1388.41C1593.49 1394.83 1594.03 1426.72 1592.44 1431.77L1590.33 1432.74C1585.09 1431.07 1580.65 1425.4 1577.03 1421.84C1572.17 1389.46 1584.08 1338.67 1572.77 1306.21C1571.72 1303.2 1565.81 1299.19 1562.48 1296.89Z"/><path fill="#F9EFE1" transform="translate(-231 0)" d="M1619.98 1676.53C1620.85 1668.53 1613.32 1669.01 1614.74 1662.55L1616.7 1660.81C1628.72 1661.15 1658.57 1671.26 1659.73 1680.08C1656.1 1685.14 1650.37 1686.55 1642.14 1687.46C1632.35 1684.18 1626.36 1682.31 1619.98 1676.53Z"/><path fill="#FBF7F4" transform="translate(-231 0)" d="M1688.73 1274.55C1701.68 1273.63 1716.3 1281.55 1722.71 1288.82C1751.49 1321.5 1742.29 1364.46 1741.96 1400.76C1741.91 1406.25 1737.64 1413.53 1734.87 1418.59C1735.7 1412.38 1737.29 1410.19 1736.85 1403.62L1734.09 1405.13C1734.54 1419.86 1724.7 1426.47 1716.33 1440.22C1713.1 1444.09 1709.24 1450.12 1701.76 1451.44C1694.37 1452.73 1681.31 1453.16 1673.99 1451.08C1664.87 1448.49 1659 1441.97 1655.88 1436.12C1641.81 1407.16 1647.28 1374.88 1646.58 1344.9C1646.31 1333.33 1645.07 1319.19 1646.33 1307.95C1646.9 1302.94 1657.45 1289.05 1661.3 1283.69C1671.21 1281.12 1679.38 1277.86 1688.73 1274.55ZM1703.01 1432.96C1736.38 1419.64 1740.32 1288.97 1687.86 1291.82C1680.48 1295 1661.92 1305.28 1663.28 1310.61C1667.66 1327.82 1639.93 1460.44 1703.01 1432.96Z"/><path fill="#F4E5C2" transform="translate(-231 0)" d="M2255.38 1258.69C2290.14 1249.46 2320.74 1238.21 2358.78 1248.74C2373.4 1252.78 2390.14 1263.28 2406.19 1261.24C2418.82 1259.63 2423.51 1240 2434.14 1238.55C2448.11 1257.77 2436.71 1346.56 2441.54 1370.73C2442.19 1373.96 2442.22 1384.86 2441.08 1387.93C2432.23 1395.33 2403.04 1395.78 2392.35 1391.18C2390.58 1388.78 2389.11 1387.13 2390.74 1384.24C2392.07 1369.32 2390.85 1346.46 2387.13 1332C2382.84 1315.32 2374.59 1306.78 2353.88 1297.46C2333.88 1295.47 2326.83 1297.88 2309.49 1304.03C2306.94 1308.3 2304.64 1312.36 2303.81 1316.94C2301.08 1332.06 2300.72 1419.56 2307.36 1426.99C2310.53 1430.55 2317.62 1431.3 2323.42 1431.96C2331.13 1432.83 2339.68 1433.1 2346.4 1429.99C2352.59 1427.13 2355.07 1422.17 2355.82 1417.46C2357.46 1407.13 2347.72 1397.44 2349.35 1387.49L2351.1 1386.89C2386.82 1399.98 2380.79 1436.47 2374.08 1456.61C2370.68 1466.81 2385.12 1484.65 2370.92 1497C2366.6 1502.08 2353.03 1511.18 2343.38 1511.48C2343.28 1500.14 2380.25 1481.08 2320.99 1486.19C2317.65 1486.48 2316.06 1487.1 2313.32 1488.2C2302.16 1500.43 2303.74 1587.62 2302.4 1606.95C2301.75 1616.28 2306.85 1641.41 2317.24 1648.98C2328.16 1652.58 2341.35 1649.73 2352.83 1647.91C2402.6 1639.99 2379.63 1589.65 2389.59 1577.65C2389.07 1567.91 2389.4 1562.14 2390.62 1552.41C2391.26 1552.5 2391.91 1552.6 2392.56 1552.68C2402.77 1553.95 2428.45 1550.61 2434.61 1555.41C2446.76 1564.9 2440.22 1629.99 2435.26 1643.09C2427.96 1662.34 2411.83 1680.28 2385.03 1690.59C2363.51 1698.87 2330.72 1705.23 2306.1 1700.7C2289.94 1697.72 2277.28 1690.34 2265.91 1682.68C2252.28 1694.93 2238.76 1695.06 2218.95 1687.41C2207.07 1680.1 2203.03 1676.22 2195.56 1667.13C2190.8 1664.2 2181.09 1653.42 2186.29 1648.99C2191.03 1649.06 2198.83 1654.09 2206.88 1656.42C2225.77 1655.98 2223.09 1632.51 2224.57 1622.78C2226.52 1586.81 2221.29 1550.14 2220.65 1514.1C2220.28 1493.67 2221.12 1478.24 2200.29 1462.03C2204.23 1457.63 2217.09 1437.36 2216.94 1432.59C2215.59 1389.43 2219.45 1343.22 2219.49 1300.25C2219.37 1298.9 2219.19 1297.55 2218.94 1296.21C2217.97 1291.22 2216.65 1290.39 2210.61 1287.42L2198.28 1285.52C2185.68 1287.18 2182.15 1287.99 2170.27 1291.91C2189.08 1258.52 2200.23 1250.38 2255.38 1258.69Z"/><path fill="#FBF7F4" transform="translate(-231 0)" d="M2198.28 1285.52C2194.59 1283.72 2194.12 1284.05 2189.35 1283.81C2186.72 1281.47 2187.04 1281.53 2186.63 1278.59C2188.56 1276.05 2189.14 1275.37 2193.41 1274.16C2200.88 1272.05 2217.82 1272.81 2224.61 1275.72C2231.52 1278.68 2232.28 1282.69 2235.1 1287.25C2242.81 1299.69 2234.6 1382.66 2234.24 1401C2234.02 1412.17 2236.26 1423.4 2235.68 1434.56C2235.55 1437.02 2234.86 1439.18 2233.36 1441.44C2230.1 1446.39 2227.01 1452.57 2227.54 1458.03C2228.44 1467.33 2235.61 1476.35 2237.38 1485.67C2240.27 1500.91 2238.83 1517.24 2239.61 1532.64C2240.59 1551.97 2250.79 1647.62 2233.38 1655.68C2225.18 1652.78 2226.05 1629.34 2224.57 1622.78C2226.52 1586.81 2221.29 1550.14 2220.65 1514.1C2220.28 1493.67 2221.12 1478.24 2200.29 1462.03C2204.23 1457.63 2217.09 1437.36 2216.94 1432.59C2215.59 1389.43 2219.45 1343.22 2219.49 1300.25C2219.37 1298.9 2219.19 1297.55 2218.94 1296.21C2217.97 1291.22 2216.65 1290.39 2210.61 1287.42L2198.28 1285.52Z"/><path fill="#F8EFF1" transform="translate(-231 0)" d="M2210.61 1287.42C2210.61 1283.55 2209.84 1280.43 2212.81 1277.21L2214.8 1276.48C2225.3 1279.62 2233.86 1296.86 2227.86 1303.39L2224.26 1303.39L2219.49 1300.25C2219.37 1298.9 2219.19 1297.55 2218.94 1296.21C2217.97 1291.22 2216.65 1290.39 2210.61 1287.42Z"/><path fill="#F9EFE1" transform="translate(-231 0)" d="M2353.88 1297.46C2349.41 1293.9 2338.8 1288.05 2338.58 1285.97C2352.91 1284.01 2359.31 1289.22 2368.73 1295.48C2378.01 1301.65 2380.11 1312.76 2386.39 1320.29C2389.42 1324.03 2388.57 1330.02 2392.58 1334.13L2394.93 1334.32C2403.75 1325.46 2374.86 1296.8 2367.3 1288.15C2364.03 1284.41 2345.92 1281.36 2339.11 1279.7C2341.25 1278.26 2342.08 1278.36 2345.1 1278.37C2357.6 1278.39 2371.68 1285.16 2379.81 1290.77C2415.55 1315.4 2403.25 1371.41 2413.93 1374.36C2417.74 1375.42 2421.25 1376.35 2422.81 1379.1C2424.26 1381.65 2424.35 1382.54 2422.56 1384.9C2413.76 1386.76 2402.67 1387.17 2393.52 1386.42L2390.74 1384.24C2392.07 1369.32 2390.85 1346.46 2387.13 1332C2382.84 1315.32 2374.59 1306.78 2353.88 1297.46Z"/><path fill="#F9EFE1" transform="translate(-231 0)" d="M2389.59 1577.65C2391.99 1571.45 2390.37 1571.31 2396.7 1567.6L2399.15 1567.39C2410.38 1575.81 2405.33 1608.26 2404.57 1620.09C2402.65 1626.03 2404.19 1626.44 2398.66 1629.63C2384.96 1625.45 2392.83 1586.75 2389.59 1577.65Z"/><path fill="#FBF7F4" transform="translate(-231 0)" d="M2195.56 1667.13L2197.74 1665.84C2210.74 1671.57 2239.93 1670.63 2244.9 1681.08C2239.99 1686.01 2227.56 1686.86 2218.95 1687.41C2207.07 1680.1 2203.03 1676.22 2195.56 1667.13Z"/><path fill="#F4E5C2" transform="translate(-231 0)" d="M3014.81 1286.84C3046.6 1271.65 3078.57 1261.99 3116.26 1273.97C3127.94 1277.68 3143.22 1288.61 3154.77 1282.82C3165.45 1277.84 3171.76 1263.05 3178.7 1260.26C3185.85 1266.67 3180.6 1340.56 3181.82 1353.59C3182.42 1359.89 3187.54 1397.77 3179.09 1403.01C3176.41 1404.67 3136.95 1406.97 3133.73 1406.13L3130.97 1403.67C3132.77 1382.77 3141.1 1346.57 3117.44 1329.71C3112.22 1325.99 3105.54 1323.88 3097.73 1323.94C3087.86 1324.02 3070.96 1327.09 3064.05 1331.84C3051.21 1340.67 3051.67 1416.86 3053.89 1432.7C3054.6 1437.75 3057.64 1442.92 3063.89 1446.17C3069.39 1449.03 3077.23 1450.52 3084.23 1449.87C3088.11 1449.51 3092.57 1448.32 3095.02 1446.25C3105.87 1437.13 3097.64 1412.33 3097.75 1401.07C3119.82 1413.31 3120.91 1422.67 3124.58 1440.24C3128.09 1457.1 3112.76 1474.48 3125.98 1489.55C3134.83 1499.63 3109.13 1525.38 3091.79 1524.85C3080.74 1515.66 3099.66 1508.04 3098.74 1498.97C3087.91 1497.06 3059.64 1494.42 3058.43 1504.45C3054.92 1533.5 3046.63 1619.3 3067.45 1642.97C3072.37 1645.32 3078 1645.43 3083.86 1644.56C3104.17 1641.54 3116.21 1636.59 3126.87 1625C3130.19 1615.67 3131.81 1565.8 3130.95 1554.05C3142.47 1555.26 3159.06 1556.07 3166.5 1562.11C3178.14 1577.03 3178.8 1619.07 3176.22 1634.24C3173.86 1648.11 3128.74 1686.29 3111.24 1692.37C3077.88 1703.95 3048.71 1700.87 3021.35 1683.39C3007.78 1690.45 2997.9 1694.94 2981.73 1687.87C2969.44 1682.47 2937.69 1657.92 2945.74 1648.74L2950.02 1649.4C2979.95 1664.68 2979.06 1641.65 2980.99 1627.96C2979.86 1623.64 2980.73 1597.26 2980.44 1591.28C2978.95 1560.8 2977.89 1530.21 2976.26 1499.72C2974.06 1493.04 2973.15 1491.58 2967.78 1485.7C2966.22 1483.98 2957.4 1476.19 2957.52 1475.54C2958.52 1468.29 2972.92 1454.44 2972.85 1447.64C2972.45 1408.78 2978.16 1369.69 2977.99 1330.92C2976.14 1323.83 2973.53 1320.17 2967.2 1314.31L2958.62 1310.36L2956.96 1310.23C2949.38 1310.93 2944.93 1311.64 2937.5 1312.92C2930.06 1305.62 2953.95 1284.96 2962.68 1279.69C2971.86 1278.25 2981.51 1276.84 2990.61 1275.29C3004.07 1278.85 3006.15 1279.24 3014.81 1286.84Z"/><path fill="#F9EFE1" transform="translate(-231 0)" d="M3106.74 1487.45C3101.26 1480.34 3103.16 1472.95 3098.04 1468.77C3084.31 1464.77 3062.35 1471.38 3048.88 1459.85C3026.76 1440.92 3029.42 1330.97 3053.29 1317.8C3058.66 1316.67 3064.48 1318.31 3070.18 1319.37C3083.66 1314.83 3084.87 1313.93 3099.1 1318.14L3101.32 1318.81C3096.49 1316.46 3092.57 1315.1 3090.04 1311.61C3125.01 1310.74 3125.25 1335.36 3136.08 1349.9L3137.98 1350.15L3138.6 1347.97L3140.59 1348.33C3142.05 1340.63 3120.9 1315.36 3109.54 1310.88C3104.63 1308.94 3092.02 1306.84 3090.91 1305.45C3153.76 1305.92 3150.49 1353.96 3153.45 1382.21C3153.85 1386.07 3170.35 1387.4 3171.56 1404.01C3159.9 1403.62 3137.47 1406.3 3130.97 1403.67C3132.77 1382.77 3141.1 1346.57 3117.44 1329.71C3112.22 1325.99 3105.54 1323.88 3097.73 1323.94C3087.86 1324.02 3070.96 1327.09 3064.05 1331.84C3051.21 1340.67 3051.67 1416.86 3053.89 1432.7C3054.6 1437.75 3057.64 1442.92 3063.89 1446.17C3069.39 1449.03 3077.23 1450.52 3084.23 1449.87C3088.11 1449.51 3092.57 1448.32 3095.02 1446.25C3105.87 1437.13 3097.64 1412.33 3097.75 1401.07C3119.82 1413.31 3120.91 1422.67 3124.58 1440.24C3128.09 1457.1 3112.76 1474.48 3125.98 1489.55C3134.83 1499.63 3109.13 1525.38 3091.79 1524.85C3080.74 1515.66 3099.66 1508.04 3098.74 1498.97L3098.85 1498.05C3101.72 1500.29 3101.49 1500.55 3105.62 1501.47L3108.41 1499.91C3109.48 1495.53 3107.92 1491.86 3106.74 1487.45Z"/><path fill="#F9EFE1" transform="translate(-231 0)" d="M2958.62 1310.36C2958.49 1306 2957.43 1302.98 2961.33 1299.62C2975.66 1294.35 2992.37 1312.69 2993.62 1319.23C3001.53 1360.42 2989.05 1404.37 2991.53 1446.26C2991.8 1450.86 2983.54 1467.6 2981.99 1473.46C2986.85 1480.28 2991.92 1486.93 2993.6 1494.45C2998.37 1515.8 3002.81 1633.33 2994.54 1649.94C2993.88 1651.27 2992.94 1652.35 2991.86 1653.55L2988.96 1654.15C2983.63 1646.65 2985.03 1634.58 2980.99 1627.96C2979.86 1623.64 2980.73 1597.26 2980.44 1591.28C2978.95 1560.8 2977.89 1530.21 2976.26 1499.72C2974.06 1493.04 2973.15 1491.58 2967.78 1485.7C2966.22 1483.98 2957.4 1476.19 2957.52 1475.54C2958.52 1468.29 2972.92 1454.44 2972.85 1447.64C2972.45 1408.78 2978.16 1369.69 2977.99 1330.92C2976.14 1323.83 2973.53 1320.17 2967.2 1314.31L2958.62 1310.36Z"/><path fill="#F8EFF1" transform="translate(-231 0)" d="M2967.78 1485.7C2968.17 1481 2968.22 1480.78 2970.92 1476.46L2974.07 1475.69C2989.16 1483.13 2989.36 1506.75 2989.2 1518.3C2988.92 1539.35 2992.9 1563.09 2990.77 1583.88C2977.53 1570.77 2993.56 1512.04 2976.26 1499.72C2974.06 1493.04 2973.15 1491.58 2967.78 1485.7Z"/><path fill="#F8EFF1" transform="translate(-231 0)" d="M2967.2 1314.31C2967.12 1311.13 2967.46 1305.15 2965.83 1302.41C2980.55 1304.93 2990.26 1322.66 2990.24 1331.79L2988.32 1334.36L2984.86 1334.66L2977.99 1330.92C2976.14 1323.83 2973.53 1320.17 2967.2 1314.31Z"/><path fill="#493C3C" transform="translate(-231 0)" d="M3014.81 1286.84C3046.6 1271.65 3078.57 1261.99 3116.26 1273.97C3127.94 1277.68 3143.22 1288.61 3154.77 1282.82C3165.45 1277.84 3171.76 1263.05 3178.7 1260.26C3185.85 1266.67 3180.6 1340.56 3181.82 1353.59C3182.42 1359.89 3187.54 1397.77 3179.09 1403.01C3176.41 1404.67 3136.95 1406.97 3133.73 1406.13L3130.97 1403.67C3137.47 1406.3 3159.9 1403.62 3171.56 1404.01C3176.55 1399.01 3172.23 1388.92 3170.96 1382.91C3165.66 1357.9 3168.88 1333.4 3169.45 1308.35C3169.58 1302.43 3171.31 1290.55 3165.43 1286.66C3156.13 1288.37 3155.89 1294.3 3148.93 1296C3137.12 1298.87 3115.78 1288.92 3105.28 1285.15C3070.03 1272.5 3046.33 1286.43 3016.16 1295.82C3006.47 1298.79 2980.16 1283.2 2964.27 1288.6C2953.79 1292.16 2939.85 1296.76 2947.27 1306.89C2949.51 1309.59 2952.44 1309.29 2956.96 1310.23C2949.38 1310.93 2944.93 1311.64 2937.5 1312.92C2930.06 1305.62 2953.95 1284.96 2962.68 1279.69C2971.86 1278.25 2981.51 1276.84 2990.61 1275.29C3004.07 1278.85 3006.15 1279.24 3014.81 1286.84Z"/><path fill="#493C3C" transform="translate(-231 0)" d="M3126.87 1625C3123.68 1656.24 3062.89 1668.43 3051.69 1644.75C3038.29 1616.43 3033.14 1521.52 3050.69 1495.38C3058.1 1494.3 3084.32 1496.07 3093.61 1496.65L3098.85 1498.05L3098.74 1498.97C3087.91 1497.06 3059.64 1494.42 3058.43 1504.45C3054.92 1533.5 3046.63 1619.3 3067.45 1642.97C3072.37 1645.32 3078 1645.43 3083.86 1644.56C3104.17 1641.54 3116.21 1636.59 3126.87 1625Z"/><path fill="#F8EFF1" transform="translate(-231 0)" d="M2981.73 1687.87C2969.44 1682.47 2937.69 1657.92 2945.74 1648.74L2950.02 1649.4C2950.74 1654.37 2951.57 1662.81 2958.3 1666.03C2967.82 1670.59 2995.84 1670.07 2999.84 1679.13C2997.42 1683.06 2987.72 1686.54 2981.73 1687.87Z"/><path fill="#F9EFE1" transform="translate(-231 0)" d="M3093.61 1496.65C3084.57 1489.33 3060.9 1488.52 3065.67 1480.54C3074.54 1476.59 3085.97 1478.05 3096.87 1478.5L3106.74 1487.45C3107.92 1491.86 3109.48 1495.53 3108.41 1499.91L3105.62 1501.47C3101.49 1500.55 3101.72 1500.29 3098.85 1498.05L3093.61 1496.65Z"/><path fill="#F9EFE1" transform="translate(-231 0)" d="M1415.29 1018.25C1414.2 1016.88 1411.1 1012.86 1410.66 1011.56C1408.49 1003.09 1420.94 992.203 1422.91 984.348C1428.39 962.496 1434.57 941.703 1445.21 920.504C1453.91 903.171 1468.14 873.012 1500.73 868.971C1514.26 867.293 1525.2 873.59 1535.15 878.702C1538.79 881.32 1542.76 883.955 1545.75 886.869C1572.66 913.447 1581.13 943.494 1587.83 974.313C1589.57 982.32 1591.92 998.405 1597.67 1004.48C1612.22 1019.85 1595.48 1024 1588.79 1038.19C1586.74 1044.99 1587.55 1052.05 1585.79 1058.86C1576.79 1093.71 1577.99 1150.74 1521.85 1169.15C1506.77 1174.09 1483.82 1166.66 1473.24 1159.25C1433.25 1115.42 1436.57 1078.7 1426.81 1032.18C1422.07 1030.35 1417.52 1021.8 1415.29 1018.25ZM1518.01 905.505C1498.52 902.285 1493.21 916.954 1489.79 926.53C1479.08 956.48 1485.96 987.047 1485.92 1017.36C1484.51 1048.06 1482.59 1079.23 1488.2 1109.79C1489.34 1116.06 1499.79 1132.79 1509.81 1131.14C1547.58 1124.94 1534.24 1054.02 1533.39 1037.83C1531.9 1006.06 1529.87 974.296 1527.32 942.55C1523.35 935.007 1529.18 923.124 1518.01 905.505Z"/><path fill="#F4E5C2" transform="translate(-231 0)" d="M1535.15 878.702C1538.79 881.32 1542.76 883.955 1545.75 886.869C1545.8 891.739 1545.05 898.881 1545.38 903.56C1547.15 918.79 1557.64 932.199 1562.37 947.79C1566.54 961.529 1570.04 975.167 1572.31 989.201C1572.77 992.066 1580.75 1008.94 1579.69 1010.83C1561.35 1043.6 1568.44 1080.91 1551.89 1113.55C1551.94 1101.16 1555.95 1087.95 1555.04 1075.36C1552.18 1035.58 1551.93 995.593 1547.98 955.872C1546.94 945.353 1546.45 928.367 1543.49 918.826C1537.96 900.986 1534.43 897.179 1535.15 878.702Z"/><defs><linearGradient id="gradient_1" gradientUnits="userSpaceOnUse" x1="1489.002" y1="1107.9843" x2="1448.7814" y2="1115.8739"><stop offset="0" stop-color="#FCF3E3"/><stop offset="1" stop-color="#FEF6FC"/></linearGradient></defs><path fill="url(#gradient_1)" transform="translate(-231 0)" d="M1416.69 1012.69C1421.64 1009.5 1420.5 1009.16 1425.93 1008.73C1444.74 1017.72 1446.02 1048.84 1448.08 1064.35C1451.31 1088.72 1460.38 1128.78 1487.21 1148C1492.99 1152.14 1509.62 1151.9 1515.32 1156C1510.92 1163.65 1484.78 1158.89 1473.24 1159.25C1433.25 1115.42 1436.57 1078.7 1426.81 1032.18C1422.07 1030.35 1417.52 1021.8 1415.29 1018.25L1416.69 1012.69Z"/><path fill="#F8EFF1" transform="translate(-231 0)" d="M1416.69 1012.69C1419.1 1012.41 1422.92 1011.42 1424.54 1012.45C1441.13 1023.05 1441.92 1049.66 1441.03 1063.5C1437.4 1053.19 1443.53 1036.91 1426.81 1032.18C1422.07 1030.35 1417.52 1021.8 1415.29 1018.25L1416.69 1012.69Z"/><path fill="#F4E5C2" transform="translate(-231 0)" d="M1469 921.515C1470.35 924.643 1463.24 949.2 1463.26 955.769C1463.32 972.062 1467.2 989.804 1466.86 1005.76C1465.88 1051.42 1458.37 1088.84 1479.12 1133.4C1475.63 1131.1 1473.69 1127.02 1471.75 1123.88C1463.57 1105.57 1456.7 1087.64 1453.13 1068.69C1451.03 1057.55 1451.39 1038.42 1446.7 1028.67C1444.31 1023.69 1439.44 1019.19 1436.67 1014.28C1431.89 1005.84 1460.9 932.512 1469 921.515Z"/><path fill="#FBF7F4" transform="translate(-231 0)" d="M1518.01 905.505C1518.87 900.488 1518.89 899.483 1515.36 894.973L1516.24 892.335C1523.49 892.113 1534.22 904.074 1535.31 906.954C1540.27 920.083 1539.97 936.61 1539.87 950.231L1538.35 951.744L1536.18 951.348C1534.07 948.781 1532.38 946.656 1530.48 944.001L1527.32 942.55C1523.35 935.007 1529.18 923.124 1518.01 905.505Z"/><path fill="#F9EFE1" transform="translate(-231 0)" d="M1540.65 966.933C1548.4 970.482 1544.98 989.224 1543.58 995.186C1541.59 993.786 1540.84 992.947 1539.17 991.383C1537.71 984.428 1536.65 973.469 1540.65 966.933Z"/><path fill="#F8EFF1" transform="translate(-231 0)" d="M859.845 518.328C862.246 514.645 862.675 514.005 865.992 510.679C871.223 508.448 876.144 509.145 882.652 509.285C930.879 512.856 945.691 512.672 991.841 526.223C1005.27 524.689 1067.78 520.125 1077.83 522.655C1081.39 529.346 1068.46 550.098 1064.85 557.019C1036.98 610.398 1026.63 662.698 1023.19 718.78C1020.9 756.245 1016.13 794.767 1021.18 832.709C1023.05 847.41 1025.68 862.065 1029.08 876.65C1031.38 886.043 1036.19 899.89 1036.91 908.827C1034.19 910.758 1033.33 911.966 1028.53 911.792C990.727 910.422 973.496 889.687 966.674 867.807C964.722 864.161 963.486 858.733 962.379 854.819C956.82 840.071 960.244 819.281 960.463 803.472C939.404 793.423 928.349 781.677 918.147 767.038C872.798 701.965 925.543 723.584 954.52 672.343C955.781 667.959 957.209 663.597 958.802 659.259C959.317 654.16 959.361 649.046 958.935 643.943C956.715 620.842 943.856 595.398 921.15 577.256C916.493 573.535 904.688 569.126 898.569 565.322C880.758 553.149 846.224 560.301 825.674 563.747L822.809 564.218L823.075 565.112C820.279 566.519 819.319 567.052 816.291 568.231C821.348 563.515 824.774 561.836 825.058 556.717C837.315 544.092 849.556 531.676 859.845 518.328Z"/><path fill="#F4E5C2" transform="translate(-231 0)" d="M859.845 518.328C862.246 514.645 862.675 514.005 865.992 510.679C871.223 508.448 876.144 509.145 882.652 509.285C930.879 512.856 945.691 512.672 991.841 526.223C1005.27 524.689 1067.78 520.125 1077.83 522.655C1081.39 529.346 1068.46 550.098 1064.85 557.019C1036.98 610.398 1026.63 662.698 1023.19 718.78C1020.9 756.245 1016.13 794.767 1021.18 832.709C1023.05 847.41 1025.68 862.065 1029.08 876.65C1031.38 886.043 1036.19 899.89 1036.91 908.827C1034.19 910.758 1033.33 911.966 1028.53 911.792C990.727 910.422 973.496 889.687 966.674 867.807C975.711 873.258 984.915 897.671 1002.3 901.441L1004.84 900.277C1009.3 890.349 1000.73 876.397 998.489 864.64C993.143 836.636 992.596 809.264 988.024 781.387C986.081 769.537 975.042 751.686 977.013 740.126C980.959 716.988 991.043 698.443 994.964 674.367C997.355 659.963 998.986 645.512 999.856 631.036C1000.6 617.768 1000.1 600.803 1004.02 587.646C1007.93 574.531 1056.08 540.489 1038.1 527.684C1032.96 528.804 1032.27 534.169 1028.98 533.733C1004.83 530.531 975.964 530.764 952.878 525.859C928.716 520.725 883.389 513.04 859.845 518.328Z"/><path fill="#E5C8D1" transform="translate(-231 0)" d="M960.463 803.472C939.404 793.423 928.349 781.677 918.147 767.038C872.798 701.965 925.543 723.584 954.52 672.343C958.503 705.655 920.298 710.427 918.073 736.598C916.168 758.996 958.534 781.181 965.312 796.611C966.265 798.782 963.056 850.483 962.379 854.819C956.82 840.071 960.244 819.281 960.463 803.472Z"/><path fill="#E5C8D1" transform="translate(-231 0)" d="M822.809 564.218C830.472 557.356 830.328 561.156 837.895 554.362L837.504 554.318C852.818 546.979 861.436 547.637 878.707 551.78C882.945 550.776 882.607 550.777 885.244 548.355C889.477 550.571 891.299 554.223 892.662 557.758C905.276 561.101 908.258 554.538 921.061 562.291C952.236 581.167 961.901 610.396 963.135 637.001C963.342 643.233 964.048 654.283 958.802 659.259C959.317 654.16 959.361 649.046 958.935 643.943C956.715 620.842 943.856 595.398 921.15 577.256C916.493 573.535 904.688 569.126 898.569 565.322C880.758 553.149 846.224 560.301 825.674 563.747L822.809 564.218Z"/><path fill="#F4E5C2" transform="translate(-231 0)" d="M1166.6 874.614C1160.73 874.385 1162.89 875.172 1159.44 872.772C1160.43 867.666 1173.3 855.583 1180.14 851.969C1193.86 844.725 1205.04 855.175 1215.88 854.522C1245.51 843.23 1260.04 845.253 1278.23 865.804C1275.43 870.595 1262.75 872.768 1255.12 876.333C1234.96 900.502 1263.54 945.703 1266.92 972.853C1267.63 978.533 1274.27 1010.78 1278.82 1013.74C1287.25 1008.6 1292.97 955.388 1296.86 943.629L1297.02 941.762C1299.17 918.25 1313.41 891.2 1300.2 868.207C1326.58 841.934 1327.86 857.937 1363.26 858.032C1381.69 865.051 1382.63 866.53 1394.64 877.916C1383.11 878.725 1381.1 879.127 1370.29 881.56C1343.51 904.998 1339.17 959.707 1340.75 988.865C1349.75 1006.5 1352.53 1006.65 1339.25 1023.81C1333.19 1031.63 1326.17 1039.5 1322.12 1047.87C1316.5 1059.51 1298.74 1125.81 1303.67 1134.48C1306.16 1138.84 1310.98 1140.88 1317.38 1142.6C1321.86 1143.81 1326.45 1144.43 1329.49 1147.07C1332.36 1153.54 1324.1 1158.24 1318.21 1162.79C1310.27 1168.94 1302.91 1170.48 1291.34 1172.23L1289.37 1171.9C1285 1171.14 1278.54 1169.96 1274.83 1168.34C1265.09 1164.07 1257.68 1168.54 1247.35 1168.29C1228.94 1164.18 1222.25 1161.54 1210.04 1151.23C1206.75 1148.66 1201.97 1142.93 1199.16 1139.82C1202.36 1139.86 1205.56 1139.87 1208.76 1139.85C1235.92 1139.65 1233 1130.84 1232.6 1116.7C1231.03 1113.24 1227.96 1090.5 1227.26 1085.98C1224.52 1067.31 1221.16 1048.67 1217.2 1030.09C1216.11 1029.46 1199.35 1012 1196.88 1009.5L1189.02 1002.4C1195.55 994.204 1199.93 987.967 1205.42 979.443C1199.43 963.471 1195.72 933.256 1192.68 915.91C1189.69 903.024 1188.25 892.975 1180.56 880.837C1174.86 876.803 1174.53 876.082 1166.6 874.614Z"/><path fill="#F9EFE1" transform="translate(-231 0)" d="M1300.2 868.207C1326.58 841.934 1327.86 857.937 1363.26 858.032C1381.69 865.051 1382.63 866.53 1394.64 877.916C1383.11 878.725 1381.1 879.127 1370.29 881.56C1343.51 904.998 1339.17 959.707 1340.75 988.865L1323.3 988.849C1323.29 979.976 1324.69 912.006 1322.73 908.265C1320.08 913.206 1323.32 918.877 1320.51 927.129C1311.8 952.666 1311.87 982.105 1302.27 1007.59C1301.49 1009.66 1298.45 1010.34 1295.84 1010.82C1288.24 1005.43 1291.96 991.428 1293.71 984.29C1297.26 969.851 1298.79 958.21 1296.86 943.629L1297.02 941.762C1299.17 918.25 1313.41 891.2 1300.2 868.207Z"/><path fill="#F9EFE1" transform="translate(-231 0)" d="M1166.6 874.614C1171.56 869.111 1177.95 864.025 1188.95 868.078C1198.93 871.754 1204.38 883.218 1206.22 890.307C1214.11 920.671 1219.83 951.854 1222.63 982.587C1223.18 988.666 1216.09 993.636 1216.15 999.731C1220.14 1007.99 1233.9 1021.24 1237.02 1029.65C1239.63 1036.7 1240.73 1047.3 1241.85 1054.34C1244.61 1070.75 1247.04 1087.18 1249.14 1103.63C1250.5 1113.57 1256.3 1125.53 1249.04 1135.69C1246.89 1133.96 1246.27 1126.63 1245.55 1123.79C1245.44 1126.25 1245.65 1131.61 1244.32 1133.54C1238.66 1127.24 1237.03 1121.92 1232.6 1116.7C1231.03 1113.24 1227.96 1090.5 1227.26 1085.98C1224.52 1067.31 1221.16 1048.67 1217.2 1030.09C1216.11 1029.46 1199.35 1012 1196.88 1009.5L1189.02 1002.4C1195.55 994.204 1199.93 987.967 1205.42 979.443C1199.43 963.471 1195.72 933.256 1192.68 915.91C1189.69 903.024 1188.25 892.975 1180.56 880.837C1174.86 876.803 1174.53 876.082 1166.6 874.614Z"/><path fill="#F8EFF1" transform="translate(-231 0)" d="M1180.56 880.837C1180.62 876.105 1179.43 875.415 1182.58 871.946C1199.57 869.848 1207.61 908.847 1201.81 916.023L1199.72 915.942C1197.1 915.856 1195.27 915.867 1192.68 915.91C1189.69 903.024 1188.25 892.975 1180.56 880.837Z"/><path fill="#F8EFF1" transform="translate(-231 0)" d="M1196.88 1009.5C1199.78 1006.32 1200.55 1004.63 1205.76 1003.24C1223.9 1005.56 1232.07 1041.48 1231.76 1051.87C1229 1043.45 1228.84 1034.92 1217.2 1030.09C1216.11 1029.46 1199.35 1012 1196.88 1009.5Z"/><path fill="#F8EFF1" transform="translate(-231 0)" d="M1210.04 1151.23C1217.56 1147.13 1246.07 1147.17 1254.85 1154.31C1256.58 1159.19 1253.07 1165.02 1247.35 1168.29C1228.94 1164.18 1222.25 1161.54 1210.04 1151.23Z"/><path fill="#F9EFE1" transform="translate(-231 0)" d="M1267.54 1147.79C1275.56 1147.36 1290.73 1152.39 1295.51 1156.74C1295.55 1161.05 1296.36 1158.94 1291.4 1162.96C1285.59 1164.35 1282.05 1164.26 1275.95 1164.51C1266.66 1157.05 1263.82 1157.24 1267.54 1147.79Z"/><path fill="#F4E5C2" transform="translate(-231 0)" d="M1687 863.929C1693.05 860.722 1700.02 856.08 1708.32 856.623C1726.7 857.824 1745.45 878.383 1753.33 888.07C1747.25 888.052 1740.13 887.906 1734.16 888.063C1720.06 901.431 1720.96 916.733 1721.2 932.429C1721.44 948.311 1720.44 965.171 1721.7 980.964C1730.58 988.444 1738.41 992.429 1737.6 1002.29C1737.07 1008.8 1720.34 1025.01 1720.47 1028.66C1721.14 1047.32 1714.73 1106.71 1726.83 1120.39C1776.82 1141.94 1763.31 1055.62 1768.66 1050.15C1777.96 1048.77 1798.3 1054.29 1799.56 1062.46C1803.82 1090.16 1803.7 1124.34 1780.09 1148.78C1767.76 1160.61 1754.3 1162.75 1735.43 1164.96C1711.37 1158.46 1718.44 1158.14 1695.7 1161.9C1684.32 1159.22 1679.51 1158.3 1669.32 1153.98C1657.5 1147.84 1642.68 1138.68 1631.14 1131.95C1640.08 1132.03 1655.79 1133.89 1661.15 1129.25C1664.19 1116.54 1668.45 1031.49 1663.75 1022.13C1660.64 1020.58 1658.12 1016.53 1656.12 1013.99L1651.34 1008.48L1644.81 1000.98C1674.66 973.286 1662.77 959.182 1665.69 927.732C1664.66 925.282 1663.42 903.621 1663.13 899.628L1659.83 890.629L1655.24 885.255C1642.21 883.473 1636.74 885.601 1624.58 888.765C1633.64 874.347 1645.69 851.088 1676.89 860.624C1680.29 861.682 1683.67 862.783 1687 863.929Z"/><path fill="#F9EFE1" transform="translate(-231 0)" d="M1651.34 1008.48C1654.53 1004.5 1654.43 1004.73 1660.24 1002.14C1704.99 999.464 1670.64 1123.48 1682.69 1138.92C1688.7 1141.8 1692.21 1141.94 1699.67 1143.14L1698.49 1144.93C1687.51 1146.22 1681.43 1139.89 1673.13 1141.23C1672.94 1145.54 1672.01 1143.68 1675.77 1147.07C1690.98 1151.37 1710.49 1144.71 1718.93 1148.48C1732.62 1154.61 1742.77 1150.1 1746.97 1151.11C1731.08 1161.09 1719.45 1153.89 1710.78 1150.21C1709.96 1149.87 1687.47 1153.94 1679.24 1153.94L1669.32 1153.98C1657.5 1147.84 1642.68 1138.68 1631.14 1131.95C1640.08 1132.03 1655.79 1133.89 1661.15 1129.25C1664.19 1116.54 1668.45 1031.49 1663.75 1022.13C1660.64 1020.58 1658.12 1016.53 1656.12 1013.99L1651.34 1008.48Z"/><path fill="#F8EFF1" transform="translate(-231 0)" d="M1656.12 1013.99C1656.95 1008.79 1655.65 1009.85 1659.82 1006.16C1670.41 1006.11 1676 1019.22 1676.54 1024.92L1675.49 1026.4L1675.6 1026.3C1664.02 1024.12 1676.09 1024.57 1663.75 1022.13C1660.64 1020.58 1658.12 1016.53 1656.12 1013.99Z"/><path fill="#F9EFE1" transform="translate(-231 0)" d="M1655.24 885.255C1654.49 881.092 1653.39 879.137 1656.53 875.528C1664.81 872.917 1674.52 881.082 1676.36 885.569C1686.53 910.354 1682.21 938.479 1681.67 963.904C1681.58 967.986 1682.31 979.994 1680.04 982.655C1677.63 978.786 1677.25 976.822 1676.03 972.671C1676.03 977.55 1676.04 982.09 1675.65 986.977C1668.74 972.82 1668.84 962.835 1669.89 948.112C1670.47 940.102 1671.56 934.942 1665.69 927.732C1664.66 925.282 1663.42 903.621 1663.13 899.628L1659.83 890.629L1655.24 885.255Z"/><path fill="#FBF7F4" transform="translate(-231 0)" d="M1659.83 890.629C1659.78 886.452 1658.85 882.742 1662.52 879.445L1665.14 879.339C1677.26 888.725 1676.57 918.966 1677.5 932.316L1674.88 932.817L1675.73 933.15C1669.08 921.102 1679.09 911.498 1663.13 899.628L1659.83 890.629Z"/><path fill="#F9EFE1" transform="translate(-231 0)" d="M1773.66 1064.38C1791.4 1072.44 1782.26 1103.27 1776.73 1114.81L1774.91 1115.31L1772.71 1114.31C1770.29 1108.24 1769.96 1071.08 1773.66 1064.38Z"/><path fill="#F4E5C2" transform="translate(-231 0)" d="M2058.45 929.818C2059.36 926.848 2059.49 926.949 2058.87 923.984C2040.77 922.32 1961.45 949.194 1949.43 946.453C1946.29 938.97 2007.54 859.183 2020.46 848.624L2021.99 848.767L2021.74 853.71C2030.45 860.474 2020.39 866.394 2025.9 874.13C2036.66 880.121 2100.14 873.875 2115.67 876.4C2135.65 879.65 2118.01 906.902 2113.99 915.463C2103.43 937.306 2092.16 964.72 2084.03 987.608C2082.08 993.116 2093.88 1004.14 2091.45 1011.51C2088.57 1020.23 2079.35 1028.89 2075.24 1037.47C2072.63 1048.15 2067.56 1064.81 2067.02 1075.22C2066.52 1084.97 2057.32 1124.99 2060.61 1130.96C2069.68 1134.7 2078.24 1126.49 2088.82 1126.88C2097.3 1132.39 2079.52 1156.04 2070.41 1160.48C2058.33 1166.35 2044.48 1165.09 2037.16 1157.26C2027.91 1153.91 2021.1 1165.53 2005.56 1163.76C1982.02 1161.07 1978.14 1129.36 1977.16 1119.24C1982.59 1123.98 1988.24 1130.96 1998.41 1128.84C2002.53 1125.79 2006.61 1120.04 2007.21 1116.13C2012.19 1083.44 2022.51 1048.66 2025.3 1016.08C2021.65 1013.87 2018.05 1011.61 2014.52 1009.31C2011.77 1002.24 2027.1 997.554 2032.6 991.49C2046.69 975.971 2050.21 948.11 2058.45 929.818Z"/><defs><linearGradient id="gradient_2" gradientUnits="userSpaceOnUse" x1="2043.2324" y1="886.69177" x2="2028.1857" y2="947.67114"><stop offset="0" stop-color="#FAEBC2"/><stop offset="1" stop-color="#FDF6E8"/></linearGradient></defs><path fill="url(#gradient_2)" transform="translate(-231 0)" d="M2058.45 929.818C2059.36 926.848 2059.49 926.949 2058.87 923.984C2040.77 922.32 1961.45 949.194 1949.43 946.453C1946.29 938.97 2007.54 859.183 2020.46 848.624L2021.99 848.767L2021.74 853.71C2030.45 860.474 2020.39 866.394 2025.9 874.13C2036.66 880.121 2100.14 873.875 2115.67 876.4C2135.65 879.65 2118.01 906.902 2113.99 915.463C2095.94 913.586 2088.68 912.636 2084.68 925.527L2083.3 926.35L2080.28 921.08C2079.45 921.846 2068.7 961.997 2060.22 970.71C2060.88 968.445 2064.35 957.247 2064.27 955.706C2060.11 962.228 2056.47 972.012 2054.65 978.965C2053.36 974.853 2058 959.063 2058.54 953.576C2059.3 945.672 2059.77 937.837 2058.45 929.818Z"/><path fill="#F9EFE1" transform="translate(-231 0)" d="M2037.16 1157.26C2038.38 1149.5 2033.22 1149.03 2032.57 1141.65L2034.68 1139.87C2040.1 1140.06 2040.24 1140.48 2044.64 1142.46C2049.59 1145.25 2055.01 1147.62 2056.98 1151.54C2055.07 1157.44 2045.61 1157.14 2037.16 1157.26Z"/><path fill="#FBF7F4" transform="translate(-231 0)" d="M779.526 1381.3C787.613 1378.27 796.785 1373.28 805.712 1375.7C810.862 1380.91 810.706 1386.73 814.094 1393.13C837.044 1406.51 801.96 1416.8 850.22 1423.62C856.13 1430.63 863.249 1438.93 869.527 1445.71C889.251 1467.03 877.801 1474.36 853.754 1490.05C854.789 1518 852.895 1543.97 853.903 1570.86C847.138 1572.26 842.55 1572.58 838.707 1576.56C824.223 1591.58 829.592 1625.13 834.778 1641.88C826.95 1644.69 812.905 1648.33 804.021 1648.72C797.682 1627.1 808.401 1622.97 807.008 1604.46C805.674 1586.75 797.616 1564.46 794.549 1546.15C791.441 1527.6 792.623 1511.94 790.845 1493.68C781.997 1504.11 756.565 1529.41 751.816 1538.84C743.278 1555.79 764.424 1625.71 766.417 1649.42L761.687 1650.12L745.791 1567.81C743.812 1558.3 738.963 1545.96 738.626 1536.42C738.552 1534.31 746.875 1528.85 748.285 1525.04C756.929 1501.66 781.147 1480.57 785.964 1456.45C786.974 1451.39 789.908 1443.36 791.66 1438.17C794.44 1436.6 796.807 1435.27 798.762 1434.17C800.633 1429.59 779.761 1412.1 781.411 1409.3C787.877 1398.32 783.775 1393.97 779.526 1381.3Z"/><path fill="#E5C8D1" transform="translate(-231 0)" d="M687.862 1306.74C704.945 1295.54 719.37 1297.11 735.973 1308.48C766.185 1329.18 760.194 1365.42 745.846 1390.03C735.401 1384.41 714.142 1370.57 700.182 1371.33C674.824 1372.72 667.583 1395.99 662.413 1409.42C646.376 1451.1 648.584 1493.87 651.548 1536.4C652.135 1545.44 658.127 1570.29 652.494 1575.89C647.825 1575.87 650.035 1576.21 646.044 1574.22C633.312 1554.45 630.477 1544.7 624.51 1524.5C624.764 1517.82 620.05 1498.14 619.265 1490.2C617.237 1469.69 617.231 1450.04 621.185 1429.61C623.458 1399.63 635.485 1356.05 658.068 1330.33C665.781 1321.55 677.085 1314.03 687.862 1306.74Z"/><path fill="#BD9898" transform="translate(-231 0)" d="M687.862 1306.74C704.945 1295.54 719.37 1297.11 735.973 1308.48C766.185 1329.18 760.194 1365.42 745.846 1390.03C735.401 1384.41 714.142 1370.57 700.182 1371.33C674.824 1372.72 667.583 1395.99 662.413 1409.42C646.376 1451.1 648.584 1493.87 651.548 1536.4C652.135 1545.44 658.127 1570.29 652.494 1575.89C647.825 1575.87 650.035 1576.21 646.044 1574.22C633.312 1554.45 630.477 1544.7 624.51 1524.5C624.764 1517.82 620.05 1498.14 619.265 1490.2C617.237 1469.69 617.231 1450.04 621.185 1429.61C623.557 1442.88 621.066 1458.84 622.092 1472.36C623.306 1488.37 627.183 1504.45 630.112 1520.37C630.984 1525.11 631.191 1534.5 633.667 1538.23L636.145 1537.03C650.14 1518.42 640.381 1512.5 640.355 1491.92L640.335 1490L640.345 1488.85L637.636 1489.41L636.522 1488.74L640.417 1483.92C636.187 1480.88 636.264 1480.99 633.69 1477.27C637.896 1470.52 632.532 1465.08 633.23 1455.07C634.983 1429.93 645.172 1398.84 661.464 1376.4C672.859 1361.9 703.741 1370.73 720.267 1368.2C737.588 1365.56 735.781 1331.19 731.643 1323.47C725.758 1312.49 704.72 1311.05 690.277 1307.36L687.862 1306.74Z"/><path fill="#F9EFE1" transform="translate(-231 0)" d="M697.083 1332.16C701.332 1332.02 701.519 1332.29 705.616 1333.25C712.276 1337.91 710.953 1341.42 704.576 1345.75C697.826 1345.22 696.594 1344.13 693.436 1340.68C692.783 1336.39 693.526 1336.08 697.083 1332.16Z"/><path fill="#F8EFF1" transform="translate(-231 0)" d="M1892.73 1104.98C1925.02 1102.85 1934.94 1133.23 1914.19 1147.47C1878.93 1150.91 1874.07 1120.32 1892.73 1104.98Z"/><path fill="#A16773" fill-opacity="0.12941177" transform="translate(-231 0)" d="M624.51 1524.5C630.477 1544.7 633.312 1554.45 646.044 1574.22L642.048 1572.82L639.894 1574.91C633.974 1568.84 623.095 1542.9 619.539 1534.85L623.144 1536.19L624.451 1534.88C624.004 1530.66 624.105 1528.74 624.51 1524.5Z"/></g></svg>